<svg width="24" height="22" viewBox="0 0 24 22" fill="none" xmlns="http://www.w3.org/2000/svg">
<path d="M3.105 21.774C2.44341 21.774 1.87705 21.5423 1.40592 21.0789C0.934785 20.6156 0.699219 20.0585 0.699219 19.4079V2.84511C0.699219 2.19443 0.934785 1.63741 1.40592 1.17405C1.87705 0.710685 2.44341 0.479004 3.105 0.479004H19.9455C20.6071 0.479004 21.1734 0.710685 21.6446 1.17405C22.1157 1.63741 22.3513 2.19443 22.3513 2.84511V5.80275H19.9455V2.84511H3.105V19.4079H19.9455V16.4502H22.3513V19.4079C22.3513 20.0585 22.1157 20.6156 21.6446 21.0789C21.1734 21.5423 20.6071 21.774 19.9455 21.774H3.105ZM12.7281 17.0418C12.0665 17.0418 11.5002 16.8101 11.029 16.3467C10.5579 15.8833 10.3223 15.3263 10.3223 14.6756V7.57733C10.3223 6.92665 10.5579 6.36963 11.029 5.90626C11.5002 5.4429 12.0665 5.21122 12.7281 5.21122H21.1484C21.81 5.21122 22.3763 5.4429 22.8475 5.90626C23.3186 6.36963 23.5542 6.92665 23.5542 7.57733V14.6756C23.5542 15.3263 23.3186 15.8833 22.8475 16.3467C22.3763 16.8101 21.81 17.0418 21.1484 17.0418H12.7281ZM21.1484 14.6756V7.57733H12.7281V14.6756H21.1484ZM16.3368 12.9011C16.838 12.9011 17.264 12.7285 17.6149 12.3835C17.9657 12.0384 18.1411 11.6194 18.1411 11.1265C18.1411 10.6335 17.9657 10.2145 17.6149 9.86949C17.264 9.52444 16.838 9.35191 16.3368 9.35191C15.8356 9.35191 15.4096 9.52444 15.0587 9.86949C14.7079 10.2145 14.5325 10.6335 14.5325 11.1265C14.5325 11.6194 14.7079 12.0384 15.0587 12.3835C15.4096 12.7285 15.8356 12.9011 16.3368 12.9011Z" fill="white"/>
</svg>
