<svg width="23" height="23" viewBox="0 0 23 23" fill="none" xmlns="http://www.w3.org/2000/svg">
<g clip-path="url(#clip0_96_7796)">
<path d="M1.38872 2.657C1.41572 2.575 1.44572 2.494 1.46872 2.41C1.59082 1.98659 1.84681 1.61412 2.19835 1.3484C2.54989 1.08267 2.97805 0.937982 3.41872 0.936002C5.03172 0.933002 6.64472 0.935002 8.25672 0.936002C8.56172 0.936002 8.73372 1.086 8.73272 1.346C8.73172 1.605 8.55872 1.753 8.25272 1.753C6.68772 1.754 5.12272 1.753 3.55872 1.753C2.72072 1.753 2.20872 2.267 2.20872 3.11V7.785C2.20872 8.625 2.72172 9.135 3.56472 9.136H10.7187C10.7337 8.996 10.7337 8.872 10.7597 8.754C10.8827 8.2 11.2937 7.824 11.8737 7.724C12.3577 7.64 12.8847 7.886 13.1677 8.337C13.3087 8.562 13.4307 8.8 13.5747 9.023C13.5966 9.05338 13.6247 9.07879 13.6571 9.09758C13.6895 9.11636 13.7255 9.12809 13.7627 9.132C14.7527 9.138 15.7447 9.145 16.7347 9.132C16.8961 9.13188 17.0558 9.09977 17.2047 9.03754C17.3536 8.97531 17.4886 8.88419 17.6021 8.76944C17.7155 8.65469 17.8051 8.5186 17.8656 8.36902C17.9262 8.21944 17.9564 8.05935 17.9547 7.898C17.9617 6.265 17.9617 4.632 17.9547 2.998C17.9527 2.283 17.4097 1.757 16.6807 1.755C15.1437 1.752 13.6057 1.755 12.0677 1.753C11.8137 1.753 11.6437 1.621 11.6077 1.406C11.5941 1.31397 11.6125 1.22005 11.6598 1.13996C11.7071 1.05986 11.7805 0.998453 11.8677 0.966002C11.9455 0.942854 12.0266 0.932717 12.1077 0.936002C13.6367 0.936002 15.1697 0.930002 16.6997 0.942002C16.9467 0.944002 17.2057 0.987002 17.4397 1.068C17.8286 1.20603 18.1654 1.46081 18.404 1.7975C18.6426 2.13418 18.7714 2.53635 18.7727 2.949C18.7777 4.617 18.7807 6.284 18.7687 7.951C18.7667 8.218 18.6867 8.485 18.6417 8.761C18.7587 8.761 18.8987 8.751 19.0377 8.761C19.4677 8.792 19.8177 8.989 20.0337 9.358C20.6497 10.405 21.2917 11.44 21.8447 12.519C23.3437 15.44 21.5907 19.034 18.3857 19.621C16.4877 19.969 14.8747 19.396 13.6087 17.932C12.8587 17.065 12.1407 16.168 11.4197 15.274C10.7497 14.442 11.1417 13.281 12.1677 13.061C12.3747 13.017 12.5977 13.054 12.8377 13.054C12.8047 12.994 12.7747 12.937 12.7427 12.881C12.2107 11.959 11.6747 11.038 11.1497 10.113C11.0767 9.986 10.9947 9.954 10.8597 9.954C8.42572 9.958 5.99272 9.957 3.55972 9.957C2.43972 9.957 1.69472 9.373 1.42172 8.283C1.41672 8.265 1.39872 8.251 1.38672 8.235C1.38972 6.374 1.38872 4.516 1.38872 2.657ZM21.5637 14.69C21.5537 14.085 21.4247 13.443 21.1007 12.86C20.5357 11.848 19.9497 10.846 19.3657 9.844C19.2097 9.576 18.9237 9.503 18.6797 9.647C18.4377 9.79 18.3727 10.07 18.5207 10.342C18.6187 10.522 18.7287 10.695 18.8207 10.877C18.9347 11.102 18.8667 11.333 18.6657 11.443C18.4597 11.556 18.2387 11.493 18.1027 11.276C17.9977 11.108 17.9057 10.933 17.8037 10.763C17.6387 10.488 17.3567 10.405 17.1067 10.555C16.8687 10.697 16.8047 10.982 16.9527 11.254C17.0487 11.428 17.1547 11.594 17.2467 11.769C17.3667 11.998 17.2957 12.244 17.0897 12.354C16.8847 12.464 16.6627 12.397 16.5277 12.177C16.4277 12.014 16.3377 11.845 16.2407 11.681C16.0707 11.4 15.7997 11.311 15.5477 11.454C15.2997 11.594 15.2307 11.885 15.3827 12.164C15.4867 12.356 15.6057 12.54 15.7007 12.736C15.7927 12.928 15.7157 13.142 15.5357 13.251C15.4538 13.3026 15.3559 13.3224 15.2604 13.3065C15.1649 13.2907 15.0785 13.2403 15.0177 13.165C14.9617 13.098 14.9197 13.017 14.8747 12.941C14.0857 11.576 13.2987 10.211 12.5087 8.847C12.3387 8.554 12.0567 8.462 11.8017 8.607C11.5497 8.751 11.4877 9.043 11.6537 9.337C11.8037 9.605 11.9607 9.87 12.1137 10.135C12.9867 11.648 13.8597 13.162 14.7357 14.674C14.8347 14.844 14.8857 15.011 14.7757 15.192C14.6087 15.466 14.2557 15.502 14.0237 15.264C13.6377 14.867 13.2567 14.465 12.8747 14.065C12.7187 13.902 12.5397 13.805 12.3077 13.871C11.9137 13.982 11.7897 14.418 12.0657 14.756C12.7947 15.651 13.5107 16.558 14.2657 17.43C15.2057 18.513 16.4077 19.007 17.8417 18.862C19.9647 18.648 21.5587 16.876 21.5617 14.69H21.5637ZM14.7447 11.063C15.1147 10.643 15.5657 10.505 16.0597 10.583C16.1997 10.365 16.3267 10.169 16.4537 9.969H14.1157L14.7457 11.063H14.7447Z" fill="white"/>
<path d="M7.79428 5.187C8.02228 5.407 8.18728 5.657 8.24428 5.974C8.27691 6.15734 8.26952 6.34556 8.22261 6.52578C8.17571 6.706 8.09041 6.87395 7.97254 7.01812C7.85468 7.16229 7.70704 7.27928 7.53974 7.36107C7.37245 7.44287 7.18945 7.48753 7.00328 7.492C6.62797 7.49759 6.25261 7.49826 5.87728 7.494C5.60328 7.492 5.44428 7.34 5.44428 7.062C5.44045 5.98333 5.44045 4.90466 5.44428 3.826C5.44428 3.547 5.60228 3.4 5.87928 3.396C6.17928 3.394 6.47928 3.396 6.78028 3.396C7.68328 3.401 8.22928 4.276 7.83928 5.094L7.79428 5.188V5.187ZM6.27028 6.65C6.55328 6.65 6.81928 6.673 7.07928 6.643C7.30828 6.615 7.43728 6.416 7.43328 6.188C7.42928 5.976 7.29028 5.77 7.07928 5.748C6.81328 5.721 6.54228 5.742 6.27028 5.742V6.65ZM6.27228 4.893C6.48028 4.893 6.67028 4.909 6.85628 4.888C7.02928 4.868 7.13228 4.752 7.13728 4.568C7.14328 4.375 7.03628 4.25 6.85728 4.227C6.66628 4.202 6.47028 4.221 6.27228 4.221V4.893ZM9.90328 4.214V5.036H10.7033C10.9823 5.038 11.1713 5.199 11.1763 5.437C11.1823 5.68 10.9863 5.852 10.6993 5.855L9.96128 5.857C9.94828 5.857 9.93528 5.864 9.90828 5.872V6.676H10.8113C11.0963 6.678 11.2693 6.832 11.2713 7.083C11.2713 7.334 11.0983 7.493 10.8153 7.494C10.3853 7.496 9.95528 7.496 9.52528 7.494C9.23328 7.493 9.06528 7.334 9.06528 7.04C9.06128 5.975 9.06128 4.91 9.06528 3.845C9.06528 3.555 9.23528 3.398 9.53028 3.396C9.96028 3.395 10.3903 3.394 10.8203 3.396C11.1023 3.398 11.2743 3.559 11.2703 3.812C11.2673 4.053 11.0953 4.212 10.8263 4.214C10.5263 4.217 10.2263 4.214 9.90328 4.214ZM13.8153 4.214V6.841C13.8153 6.923 13.8173 7.005 13.8133 7.087C13.8033 7.326 13.6423 7.489 13.4163 7.494C13.3615 7.49706 13.3066 7.48872 13.2552 7.46951C13.2038 7.4503 13.1569 7.42063 13.1175 7.38239C13.0781 7.34414 13.0471 7.29814 13.0264 7.2473C13.0057 7.19645 12.9958 7.14187 12.9973 7.087C12.9923 6.5 12.9953 5.913 12.9953 5.327V4.214C12.8303 4.214 12.6763 4.217 12.5223 4.214C12.2623 4.208 12.0883 4.037 12.0943 3.794C12.0993 3.562 12.2693 3.398 12.5223 3.397C13.1163 3.394 13.7093 3.394 14.3033 3.397C14.5553 3.399 14.7203 3.564 14.7213 3.802C14.7223 4.04 14.5583 4.205 14.3093 4.214C14.2273 4.217 14.1453 4.214 14.0633 4.214H13.8153ZM10.1743 0.935998C10.2286 0.934984 10.2825 0.945111 10.3327 0.965751C10.3829 0.986392 10.4283 1.01711 10.4662 1.056C10.504 1.0949 10.5335 1.14114 10.5528 1.19188C10.5721 1.24262 10.5808 1.29677 10.5783 1.351C10.5788 1.4036 10.5689 1.45578 10.5491 1.50453C10.5294 1.55328 10.5001 1.59763 10.4631 1.63502C10.4261 1.6724 10.3821 1.70207 10.3335 1.72232C10.285 1.74257 10.2329 1.753 10.1803 1.753C10.126 1.75406 10.072 1.74439 10.0214 1.72455C9.97081 1.7047 9.92464 1.67507 9.88553 1.63736C9.84642 1.59964 9.81514 1.55458 9.79348 1.50476C9.77181 1.45493 9.76019 1.40132 9.75928 1.347C9.75914 1.29265 9.76981 1.23881 9.79067 1.18863C9.81153 1.13844 9.84216 1.0929 9.88077 1.05465C9.91939 1.01641 9.96522 0.986223 10.0156 0.965853C10.066 0.945483 10.1199 0.935335 10.1743 0.935998Z" fill="white"/>
</g>
<defs>
<clipPath id="clip0_96_7796">
<rect width="22" height="22" fill="white" transform="translate(0.5 0.5)"/>
</clipPath>
</defs>
</svg>
