<svg width="27" height="26" viewBox="0 0 27 26" fill="none" xmlns="http://www.w3.org/2000/svg">
<mask id="mask0_437_399" style="mask-type:luminance" maskUnits="userSpaceOnUse" x="0" y="0" width="27" height="26">
<path d="M26.0373 0H0.277344V25.98H26.0373V0Z" fill="white"/>
</mask>
<g mask="url(#mask0_437_399)">
<path d="M16.3171 22.5499C19.8794 22.5499 22.7671 19.6621 22.7671 16.0999C22.7671 12.5377 19.8794 9.6499 16.3171 9.6499C12.7549 9.6499 9.86719 12.5377 9.86719 16.0999C9.86719 19.6621 12.7549 22.5499 16.3171 22.5499Z" stroke="black" stroke-miterlimit="10"/>
<path d="M16.3844 25.4799C21.4378 25.4799 25.5344 21.3833 25.5344 16.3299C25.5344 11.2765 21.4378 7.17993 16.3844 7.17993C11.331 7.17993 7.23438 11.2765 7.23438 16.3299C7.23438 21.3833 11.331 25.4799 16.3844 25.4799Z" stroke="black" stroke-miterlimit="10"/>
<path d="M18.4473 6.31C17.1173 2.91 13.8073 0.5 9.92734 0.5C4.87734 0.5 0.777344 4.6 0.777344 9.65C0.777344 13.33 2.95734 16.51 6.08734 17.96" stroke="black" stroke-miterlimit="10"/>
<path d="M14.7347 6.26006C13.6647 4.78006 11.9247 3.81006 9.95469 3.81006C6.69469 3.81006 4.05469 6.45006 4.05469 9.71006C4.05469 11.4901 4.84469 13.0901 6.09469 14.1701" stroke="black" stroke-miterlimit="10"/>
<path d="M20.9375 11.6L22.7675 9.77002" stroke="black" stroke-miterlimit="10"/>
<path d="M16.3164 9.65006V7.06006" stroke="black" stroke-miterlimit="10"/>
<path d="M22.7656 16.1001H25.5256" stroke="black" stroke-miterlimit="10"/>
<path d="M20.9375 20.6101L22.9875 22.6601" stroke="black" stroke-miterlimit="10"/>
<path d="M16.3164 22.5601V25.4801" stroke="black" stroke-miterlimit="10"/>
<path d="M11.6978 20.6101L9.75781 22.5501" stroke="black" stroke-miterlimit="10"/>
<path d="M9.86438 16.1001H7.23438" stroke="black" stroke-miterlimit="10"/>
<path d="M16.3867 12.4299V19.8699" stroke="black" stroke-miterlimit="10"/>
<path d="M11.2656 8.17995C11.2656 8.17995 10.3356 6.96995 10.0256 6.19995C10.0256 6.19995 8.36563 9.02995 6.76562 9.76995C6.76562 9.76995 8.06563 10.41 8.54563 10.89" stroke="black" stroke-linecap="round" stroke-linejoin="round"/>
<path d="M11.6975 11.6001L9.9375 9.84009" stroke="black" stroke-linecap="round" stroke-linejoin="round"/>
<path d="M14.2597 2.82007H13.7397C13.5685 2.82007 13.4297 2.95886 13.4297 3.13007V3.65007C13.4297 3.82128 13.5685 3.96007 13.7397 3.96007H14.2597C14.4309 3.96007 14.5697 3.82128 14.5697 3.65007V3.13007C14.5697 2.95886 14.4309 2.82007 14.2597 2.82007Z" fill="black"/>
<path d="M6.28703 2.82007H5.76703C5.59582 2.82007 5.45703 2.95886 5.45703 3.13007V3.65007C5.45703 3.82128 5.59582 3.96007 5.76703 3.96007H6.28703C6.45823 3.96007 6.59703 3.82128 6.59703 3.65007V3.13007C6.59703 2.95886 6.45823 2.82007 6.28703 2.82007Z" fill="black"/>
<path d="M2.67766 9.22998H2.15766C1.98646 9.22998 1.84766 9.36877 1.84766 9.53998V10.06C1.84766 10.2312 1.98646 10.37 2.15766 10.37H2.67766C2.84887 10.37 2.98766 10.2312 2.98766 10.06V9.53998C2.98766 9.36877 2.84887 9.22998 2.67766 9.22998Z" fill="black"/>
<path d="M6.2675 15.5901H5.7475C5.57629 15.5901 5.4375 15.7289 5.4375 15.9001V16.4201C5.4375 16.5913 5.57629 16.7301 5.7475 16.7301H6.2675C6.4387 16.7301 6.5775 16.5913 6.5775 16.4201V15.9001C6.5775 15.7289 6.4387 15.5901 6.2675 15.5901Z" fill="black"/>
<path d="M3.49907 16.1601C3.49907 16.1601 4.53907 15.5201 3.79907 14.3701C3.05907 13.2201 2.16907 11.4701 2.16907 11.4701C2.16907 11.4701 1.63907 11.3701 1.03906 11.8301" stroke="black" stroke-miterlimit="10"/>
<path d="M0.988281 8.15992C0.988281 8.15992 2.00828 8.59992 2.63828 7.38992C3.38828 5.95992 3.93828 4.71992 3.93828 4.71992C3.93828 4.71992 3.88828 3.90992 3.16828 3.66992" stroke="black" stroke-miterlimit="10"/>
<path d="M7.50787 0.959961C7.50787 0.959961 7.47787 2.17996 8.83787 2.18996C10.1979 2.19996 11.6978 2.23996 11.6978 2.23996C11.6978 2.23996 12.5378 2.02996 12.4778 1.26996" stroke="black" stroke-miterlimit="10"/>
<path d="M16.3852 3.38989C16.3852 3.38989 15.5952 4.21989 16.3252 5.52989L16.7952 6.19989" stroke="black" stroke-miterlimit="10"/>
<path d="M18.0381 13.8101H15.8381C15.8381 13.8101 14.7481 13.8601 14.7481 15.0701C14.7481 16.2801 15.8381 16.1601 15.8381 16.1601H16.7981C16.7981 16.1601 18.0081 16.2201 18.0081 17.3701C18.0081 18.5201 16.7981 18.5801 16.7981 18.5801H14.5781" stroke="black" stroke-linejoin="round"/>
<path d="M5.07688 21.49L6.28687 22.15L5.07688 22.81L4.41687 24.02L3.75688 22.81L2.54688 22.15L3.75688 21.49L4.41687 20.28L5.07688 21.49Z" stroke="black" stroke-linecap="round" stroke-linejoin="round"/>
<path d="M22.6277 3.14994L23.8377 3.80994L22.6277 4.46994L21.9677 5.67994L21.3077 4.46994L20.0977 3.80994L21.3077 3.14994L21.9677 1.93994L22.6277 3.14994Z" stroke="black" stroke-linecap="round" stroke-linejoin="round"/>
</g>
</svg>
