<svg width="17" height="17" viewBox="0 0 17 17" fill="none" xmlns="http://www.w3.org/2000/svg">
<mask id="mask0_325_6682" style="mask-type:luminance" maskUnits="userSpaceOnUse" x="0" y="0" width="17" height="17">
<path d="M0.921875 0.099H16.9219V16.097H0.921875V0.099Z" fill="white"/>
</mask>
<g mask="url(#mask0_325_6682)">
<path d="M3.18488 5.247C2.80488 6.023 2.58487 6.834 2.52787 7.692H0.921875V7.412C0.963875 7.14 0.999875 6.867 1.04987 6.597C1.18487 5.873 1.41987 5.182 1.74988 4.523C1.76087 4.501 1.77487 4.48 1.79588 4.446L3.18488 5.247ZM3.16987 10.958L1.77588 11.764C1.63388 11.419 1.48588 11.091 1.36187 10.753C1.14557 10.1578 1.00774 9.53686 0.951875 8.906C0.947875 8.866 0.931875 8.826 0.921875 8.786V8.505C1.42088 8.503 1.91987 8.502 2.41887 8.498C2.49088 8.498 2.53587 8.51 2.54187 8.596C2.59387 9.409 2.81387 10.176 3.16488 10.909C3.16887 10.918 3.16787 10.928 3.16987 10.958ZM12.5759 15.224C12.5179 15.254 12.4659 15.284 12.4119 15.311C11.5646 15.7234 10.65 15.9799 9.71187 16.068C9.67587 16.071 9.64188 16.086 9.60888 16.096H9.32687V14.49C10.1773 14.435 11.0084 14.2116 11.7719 13.833L12.5759 15.224ZM8.51388 14.486V16.096H8.23287C7.96688 16.054 7.70087 16.016 7.43687 15.969C6.71387 15.843 5.78588 15.522 5.26888 15.221C5.53188 14.764 5.79387 14.308 6.06787 13.835C6.83787 14.205 7.64488 14.435 8.51388 14.486ZM8.91088 2.48C5.81088 2.49 3.29087 5.022 3.30087 8.112C3.31288 11.204 5.83687 13.721 8.92188 13.717C12.0149 13.713 14.5459 11.178 14.5399 8.091C14.5329 4.994 12.0009 2.471 8.90987 2.481L8.91088 2.48ZM6.33387 8.116H6.33187C6.33187 8.646 6.33488 9.176 6.33087 9.707C6.33431 9.80319 6.30215 9.89727 6.24054 9.97123C6.17893 10.0452 6.0922 10.0938 5.99697 10.1078C5.90174 10.1218 5.80469 10.1002 5.72441 10.0471C5.64413 9.99397 5.58626 9.91312 5.56187 9.82C5.54747 9.76487 5.54107 9.70795 5.54287 9.651V6.546C5.54287 6.278 5.69987 6.1 5.93488 6.098C6.16988 6.096 6.33087 6.272 6.33187 6.539C6.33387 7.064 6.33187 7.589 6.33187 8.115L6.33387 8.116ZM9.39188 8.942C9.38351 9.24391 9.26085 9.53139 9.04868 9.74635C8.83651 9.9613 8.55065 10.0877 8.24887 10.1C7.59887 10.117 7.04887 9.644 7.00987 9.013C6.99087 8.707 7.00688 8.399 7.00688 8.093C7.00688 7.786 6.99087 7.488 7.00987 7.188C7.04987 6.556 7.59587 6.084 8.24687 6.1C8.54866 6.1113 8.83486 6.23691 9.04747 6.45138C9.26009 6.66585 9.3832 6.95313 9.39188 7.255C9.39787 7.817 9.39787 8.379 9.39188 8.941V8.942ZM12.2969 8.108H12.2709C12.2709 8.455 12.3129 8.809 12.2609 9.149C12.1709 9.739 11.6219 10.133 11.0179 10.099C10.4499 10.069 9.94788 9.613 9.91887 9.035C9.88688 8.407 9.88587 7.775 9.92087 7.149C9.95587 6.525 10.5309 6.071 11.1739 6.099C11.7739 6.126 12.2839 6.647 12.2959 7.249C12.3019 7.535 12.2969 7.822 12.2969 8.108ZM15.6519 3.753L14.2889 4.541C14.0029 4.209 13.7459 3.874 13.4509 3.578C13.1549 3.282 12.8209 3.024 12.4809 2.731L13.2669 1.368C14.2205 1.9867 15.0332 2.79934 15.6519 3.753ZM15.6519 12.443C15.0333 13.3967 14.2211 14.2096 13.2679 14.829L12.4649 13.439C13.174 12.9612 13.7838 12.3506 14.2609 11.641L15.6529 12.443H15.6519ZM8.50787 0.099V1.679C8.08587 1.758 7.66287 1.812 7.25487 1.921C6.85187 2.029 6.46287 2.193 6.05387 2.338L5.26388 0.97C6.27162 0.453186 7.37776 0.156624 8.50887 0.1L8.50787 0.099ZM5.37787 2.76C4.6686 3.23595 4.05862 3.84526 3.58187 4.554L2.18887 3.752C2.80749 2.79855 3.62016 1.98622 4.57387 1.368L5.37787 2.758V2.76ZM12.5779 0.969L11.7749 2.36L11.6349 2.3C10.9473 1.97578 10.2067 1.7786 9.44887 1.718C9.40487 1.714 9.32888 1.66 9.32788 1.628C9.31987 1.125 9.32288 0.62 9.32288 0.1C10.4573 0.154784 11.5671 0.451049 12.5779 0.969ZM5.37787 13.437L4.57387 14.829C3.62081 14.21 2.80829 13.3978 2.18887 12.445L3.57887 11.642C4.05671 12.3511 4.66769 12.9607 5.37787 13.437ZM16.9219 7.686H15.3429C15.2619 7.256 15.2089 6.838 15.0999 6.434C14.9909 6.031 14.8279 5.643 14.6829 5.234L16.0509 4.444C16.5679 5.45066 16.8648 6.55579 16.9219 7.686ZM16.9199 8.5C16.8661 9.63451 16.5702 10.7444 16.0519 11.755L14.6639 10.954C14.7509 10.744 14.8429 10.542 14.9199 10.335C15.1269 9.783 15.2599 9.213 15.2979 8.623C15.3029 8.548 15.3149 8.497 15.4109 8.498C15.9049 8.501 16.3999 8.499 16.9189 8.499L16.9199 8.5Z" fill="white"/>
<path d="M11.5028 8.91C11.502 8.96357 11.4905 9.01645 11.4689 9.06549C11.4474 9.11453 11.4162 9.15873 11.3772 9.19548C11.3382 9.23223 11.2922 9.26077 11.242 9.27941C11.1917 9.29806 11.1383 9.30642 11.0848 9.304C10.8608 9.293 10.7068 9.122 10.7008 8.878V8.098C10.7008 7.838 10.6988 7.578 10.7008 7.319C10.7038 7.075 10.8608 6.904 11.0858 6.894C11.1394 6.89158 11.1929 6.89997 11.2432 6.91868C11.2935 6.93738 11.3395 6.96601 11.3785 7.00287C11.4175 7.03972 11.4487 7.08405 11.4702 7.1332C11.4917 7.18236 11.5031 7.23534 11.5038 7.289C11.5138 7.829 11.5138 8.369 11.5038 8.909L11.5028 8.91ZM8.60276 8.873C8.60076 9.127 8.41576 9.312 8.18776 9.304C7.95876 9.297 7.79876 9.119 7.79776 8.867C7.79576 8.607 7.79776 8.347 7.79776 8.087C7.79776 7.828 7.79576 7.579 7.79776 7.324C7.79876 7.076 7.96576 6.896 8.19276 6.893C8.41676 6.889 8.59976 7.07 8.60276 7.315C8.60776 7.835 8.60776 8.354 8.60276 8.873Z" fill="white"/>
</g>
</svg>
