<svg width="21" height="20" viewBox="0 0 21 20" fill="none" xmlns="http://www.w3.org/2000/svg">
<g clip-path="url(#clip0_96_7953)">
<path d="M14.3713 7.18172C14.3411 7.10999 14.2968 7.04493 14.2412 6.99053L12.4442 5.2331M14.3713 7.18172L14.8322 6.98772M14.3713 7.18172C14.4015 7.25342 14.4171 7.33044 14.4171 7.40824M14.4171 7.40824C14.4171 7.40826 14.4171 7.40822 14.4171 7.40824ZM14.4171 7.40824V12.1558C14.4171 12.3107 14.3556 12.4593 14.246 12.5689C14.1365 12.6784 13.9879 12.7399 13.8329 12.7399H9.49627C9.34135 12.7399 9.19276 12.6784 9.08321 12.5689C8.97366 12.4593 8.91211 12.3107 8.91211 12.1558V5.65081C8.91211 5.49588 8.97366 5.3473 9.08321 5.23775C9.19276 5.1282 9.34134 5.06665 9.49627 5.06665H12.0359C12.1885 5.06669 12.3351 5.12643 12.4442 5.2331M12.4442 5.2331C12.4442 5.23311 12.4442 5.23309 12.4442 5.2331Z" stroke="#FFD085" stroke-linecap="round" stroke-linejoin="round"/>
<mask id="mask0_96_7953" style="mask-type:luminance" maskUnits="userSpaceOnUse" x="7" y="7" width="7" height="9">
<path d="M13.5811 13.1108V14.195C13.5811 14.4825 13.4669 14.7583 13.2636 14.9616C13.0602 15.1649 12.7845 15.2792 12.4969 15.2792H8.16033C7.87279 15.2792 7.59703 15.1649 7.39371 14.9616C7.19039 14.7583 7.07617 14.4825 7.07617 14.195V8.23211C7.07617 7.94457 7.19039 7.66881 7.39371 7.46549C7.59703 7.26217 7.87279 7.14795 8.16033 7.14795H9.24449" fill="white"/>
</mask>
<g mask="url(#mask0_96_7953)">
<path d="M14.5811 13.1108C14.5811 12.5586 14.1334 12.1108 13.5811 12.1108C13.0288 12.1108 12.5811 12.5586 12.5811 13.1108H14.5811ZM9.24449 8.14795C9.79678 8.14795 10.2445 7.70023 10.2445 7.14795C10.2445 6.59566 9.79678 6.14795 9.24449 6.14795V8.14795ZM12.5811 13.1108V14.195H14.5811V13.1108H12.5811ZM12.5811 14.195C12.5811 14.2173 12.5722 14.2387 12.5565 14.2545L13.9707 15.6687C14.3615 15.2779 14.5811 14.7478 14.5811 14.195H12.5811ZM12.5565 14.2545C12.5407 14.2703 12.5193 14.2792 12.4969 14.2792V16.2792C13.0497 16.2792 13.5798 16.0596 13.9707 15.6687L12.5565 14.2545ZM12.4969 14.2792H8.16033V16.2792H12.4969V14.2792ZM8.16033 14.2792C8.13801 14.2792 8.1166 14.2703 8.10082 14.2545L6.68661 15.6687C7.07746 16.0596 7.60758 16.2792 8.16033 16.2792V14.2792ZM8.10082 14.2545C8.08504 14.2387 8.07617 14.2173 8.07617 14.195H6.07617C6.07617 14.7478 6.29575 15.2779 6.68661 15.6687L8.10082 14.2545ZM8.07617 14.195V8.23211H6.07617V14.195H8.07617ZM8.07617 8.23211C8.07617 8.20979 8.08504 8.18838 8.10082 8.1726L6.68661 6.75839C6.29575 7.14924 6.07617 7.67936 6.07617 8.23211H8.07617ZM8.10082 8.1726C8.1166 8.15682 8.13801 8.14795 8.16033 8.14795V6.14795C7.60758 6.14795 7.07746 6.36753 6.68661 6.75839L8.10082 8.1726ZM8.16033 8.14795H9.24449V6.14795H8.16033V8.14795Z" fill="#FFD085"/>
</g>
<path d="M10.9971 18.8457C15.925 18.8457 19.9199 14.8508 19.9199 9.92285C19.9199 4.9949 15.925 1 10.9971 1C6.06911 1 2.07422 4.9949 2.07422 9.92285C2.07422 14.8508 6.06911 18.8457 10.9971 18.8457Z" stroke="#FFD085"/>
</g>
<defs>
<clipPath id="clip0_96_7953">
<rect width="20" height="20" fill="white" transform="translate(0.919922)"/>
</clipPath>
</defs>
</svg>
