<svg width="50" height="50" viewBox="0 0 50 50" fill="none" xmlns="http://www.w3.org/2000/svg">
<path d="M21.9313 19.1841C21.9313 18.163 21.1646 17.9499 20.7812 17.9709V16.7376C21.8549 16.7788 24.0304 16.8376 24.1479 16.7376C24.2646 16.6367 24.1962 18.1867 24.1479 18.9744L24.0014 21.7139C23.4716 21.8394 22.3909 22.0946 22.3084 22.1113C22.2242 22.128 21.2558 22.0341 20.7812 21.9858V20.9192C21.0488 20.9525 21.4225 20.7797 21.576 20.6894C21.6944 20.613 21.9313 20.2043 21.9313 19.1841Z" fill="white"/>
<path d="M21.0241 24.5414C21.0241 23.5213 20.2575 23.3081 19.875 23.3283V22.0949C20.9478 22.1371 23.1241 22.1949 23.2408 22.0949C23.3583 21.9949 23.2899 23.5449 23.2408 24.3318L23.0943 27.0713C22.5645 27.1967 21.4846 27.452 21.4013 27.4686C21.3171 27.4862 20.3487 27.3923 19.875 27.3432V26.2774C20.1417 26.3107 20.5154 26.1371 20.6689 26.0467C20.7873 25.9704 21.0241 25.5616 21.0241 24.5414Z" fill="white"/>
<path d="M21.7594 29.6411C21.7594 28.621 20.9927 28.4078 20.6094 28.4288V27.1946C21.6822 27.2367 23.8585 27.2955 23.976 27.1946C24.0927 27.0946 24.0243 28.6446 23.976 29.4324L23.8296 32.1718C23.2997 32.2973 22.219 32.5525 22.1357 32.5692C22.0515 32.5859 21.0831 32.492 20.6094 32.4438V31.3771C20.8769 31.4104 21.2497 31.2376 21.4032 31.1473C21.5225 31.0701 21.7594 30.6622 21.7594 29.6411ZM38.862 19.999L39.1576 21.9043L30.5471 25.735L30.2576 23.8271L38.862 19.999ZM39.0032 31.9692L32.0295 28.5271L31.3831 27.0885L33.6287 26.0903C34.1638 25.8517 34.5725 25.5639 34.8524 25.2262C35.1241 24.9085 35.2938 24.5163 35.3392 24.1008C35.3831 23.6876 35.3067 23.2596 35.1111 22.8183C34.8164 22.1569 34.3848 21.7113 33.8164 21.4824C33.248 21.2534 32.5357 21.3297 31.6787 21.7104L29.2401 22.7964L28.8532 20.5657L30.7866 19.706C31.8769 19.2201 32.8541 18.9876 33.7181 19.0078C34.5839 19.021 35.3304 19.2534 35.9567 19.706C36.5874 20.156 37.0839 20.7903 37.448 21.6078C37.769 22.3297 37.9243 23.0332 37.9129 23.7174C37.9006 24.4017 37.6927 25.0508 37.2874 25.6666C36.8822 26.2824 36.248 26.8543 35.3848 27.3841L35.319 27.4446L41.6576 30.649L41.7094 30.7657L39.0032 31.9692ZM37.4313 16.749L37.726 18.6859L30.7322 21.7666L30.4497 19.8552L37.4313 16.749Z" fill="white"/>
<path d="M35.5412 37.1157C42.3532 37.1157 47.8755 31.5935 47.8755 24.7815C47.8755 17.9695 42.3532 12.4473 35.5412 12.4473C28.7292 12.4473 23.207 17.9695 23.207 24.7815C23.207 31.5935 28.7292 37.1157 35.5412 37.1157Z" stroke="white" stroke-width="3.23596"/>
<path d="M5.63019 16.8858C5.63019 16.2297 6.16177 15.6972 6.81791 15.6972H25.7434V18.0744H6.81704C6.50195 18.0742 6.19985 17.9488 5.97714 17.726C5.75442 17.5031 5.63019 17.2009 5.63019 16.8858ZM0.339844 22.1139C0.339844 21.456 0.871423 20.9253 1.52756 20.9253H24.0434V23.3016H1.52756C1.21248 23.3014 0.910381 23.176 0.687665 22.9532C0.46495 22.7303 0.339844 22.429 0.339844 22.1139ZM9.30212 27.3428C9.30212 26.6867 9.83458 26.1542 10.4907 26.1542H24.0425V28.5314H10.4898C10.1748 28.5312 9.87266 28.4059 9.64995 28.183C9.42723 27.9601 9.30212 27.6579 9.30212 27.3428ZM2.94248 32.5718C2.94248 31.9156 3.47405 31.3832 4.13019 31.3832H25.7451V33.7604H4.13107C3.81584 33.7604 3.51351 33.6351 3.29061 33.4122C3.0677 33.1893 2.94248 32.887 2.94248 32.5718ZM24.7995 37.2604C24.7995 36.6042 25.3319 36.0718 25.9881 36.0718H32.9916V38.449H25.9881C25.6729 38.449 25.3705 38.3237 25.1476 38.1008C24.9247 37.8779 24.7995 37.5756 24.7995 37.2604ZM11.7758 12.1095C11.7758 11.4534 12.3074 10.9209 12.9635 10.9209H35.8846V13.2981H12.9635C12.8075 13.2981 12.653 13.2673 12.5088 13.2076C12.3646 13.1479 12.2337 13.0603 12.1234 12.9499C12.0131 12.8395 11.9256 12.7085 11.866 12.5643C11.8063 12.4201 11.7757 12.2655 11.7758 12.1095ZM3.6337 11.9998C3.6337 11.4034 4.11616 10.9209 4.71265 10.9209H8.72844C9.32493 10.9209 9.80739 11.4034 9.80739 11.9998V12.2191C9.80739 12.8148 9.32493 13.2981 8.72844 13.2981H4.71265C4.11616 13.2981 3.6337 12.8148 3.6337 12.2191V11.9998ZM14.0284 37.1507C14.0284 36.5542 14.5109 36.0718 15.1074 36.0718H20.5118C21.1083 36.0718 21.5907 36.5542 21.5907 37.1507V37.3481C21.5907 37.9437 21.1083 38.427 20.5118 38.427H15.1074C14.9657 38.427 14.8254 38.3991 14.6945 38.3449C14.5636 38.2907 14.4446 38.2112 14.3445 38.111C14.2443 38.0108 14.1648 37.8919 14.1106 37.761C14.0563 37.6301 14.0284 37.4898 14.0284 37.3481V37.1507Z" fill="white"/>
</svg>
