<svg width="44" height="44" viewBox="0 0 44 44" fill="none" xmlns="http://www.w3.org/2000/svg">
<path d="M29.3867 26.7412H37.0947C37.0569 26.6972 36.8113 26.4504 36.1312 25.8156C35.4511 25.1809 35.6337 24.4176 35.81 24.1152L29.3867 26.7412Z" fill="#6778E3"/>
<path d="M38.5565 17.8915C38.5565 22.7882 34.587 26.7577 29.6904 26.7577C24.7938 26.7577 20.8242 22.7882 20.8242 17.8915C20.8242 12.9949 24.7938 9.02539 29.6904 9.02539C34.587 9.02539 38.5565 12.9949 38.5565 17.8915Z" fill="#6778E3"/>
<path d="M6.75391 34.9899H14.7508C15.2612 34.1561 16.2785 32.4522 16.264 32.307C16.2494 32.1618 11.2245 30.9761 8.71392 30.4014L7.40718 31.9806C8.2493 32.9243 8.10894 33.5717 7.9335 33.7774L6.75391 34.9899Z" fill="#6778E3"/>
<path d="M18.8986 18.6875C17.5154 17.796 15.8682 17.2783 14.1004 17.2783C9.20398 17.2783 5.23438 21.2479 5.23438 26.1443C5.23438 31.0411 9.20398 35.0107 14.1004 35.0107C18.9523 35.0107 22.8942 31.1132 22.966 26.2781C20.6716 24.4446 19.139 21.742 18.8986 18.6875Z" fill="#6778E3"/>
<path d="M17.0377 22.9189H10.1527C9.49882 22.9189 8.96875 23.449 8.96875 24.1029C8.96875 24.7568 9.49882 25.2868 10.1527 25.2868H17.0377C17.6916 25.2868 18.2216 24.7568 18.2216 24.1029C18.2216 23.449 17.6916 22.9189 17.0377 22.9189Z" fill="white"/>
<path d="M17.0377 26.998H10.1527C9.49882 26.998 8.96875 27.5281 8.96875 28.182C8.96875 28.8359 9.49882 29.3659 10.1527 29.3659H17.0377C17.6916 29.3659 18.2216 28.8359 18.2216 28.182C18.2216 27.5281 17.6916 26.998 17.0377 26.998Z" fill="white"/>
<path fill-rule="evenodd" clip-rule="evenodd" d="M18.8681 2.83663L17.8155 0.749453L26.0096 0.749023L24.9298 2.83663H18.8681ZM17.0349 3.63521C16.6718 2.90913 16.0246 1.62266 15.5846 0.749023H10.602C9.92219 0.749023 9.37109 1.30012 9.37109 1.97993V16.1346C10.6965 15.5977 12.1506 15.3013 13.6758 15.3013C15.5765 15.3013 17.3667 15.7616 18.9352 16.5739C19.5818 11.1468 24.321 6.93382 30.0713 6.93382C31.6004 6.93382 33.058 7.23172 34.3862 7.77115V1.97993C34.3862 1.30012 33.8351 0.749023 33.1553 0.749023H28.1917L26.8173 3.63521C26.6055 4.05869 25.9316 4.90565 24.9298 4.90565C23.9279 4.90565 20.4712 4.84516 18.8681 4.81491C18.4445 4.79676 17.485 4.53541 17.0349 3.63521ZM9.37109 37.1219V42.2319C9.37109 42.9117 9.92218 43.4628 10.602 43.4628H33.1553C33.8351 43.4628 34.3862 42.9117 34.3862 42.2319V28.7544H30.1278L30.0713 28.7545L30.0148 28.7544H28.6448V28.6671C27.2746 28.4977 25.9816 28.0877 24.8119 27.482C24.2196 32.453 20.1937 36.4054 15.1023 37.0346V37.1219H13.7318L13.6758 37.1221L13.6197 37.1219H9.37109ZM19.5256 40.3948C19.0633 40.3948 18.6885 40.7696 18.6885 41.2319C18.6885 41.6942 19.0633 42.0689 19.5256 42.0689H24.2336C24.6959 42.0689 25.0707 41.6942 25.0707 41.2319C25.0707 40.7696 24.6959 40.3948 24.2336 40.3948H19.5256Z" fill="white"/>
<path d="M28.3304 19.3526V19.1355C28.3304 18.6378 28.3696 18.2412 28.448 17.9456C28.5264 17.6501 28.6425 17.4133 28.7963 17.2354C28.9502 17.0544 29.1387 16.8915 29.3618 16.7468C29.5549 16.6201 29.7268 16.4979 29.8776 16.3803C30.0314 16.2627 30.1521 16.1375 30.2395 16.0048C30.33 15.8721 30.3752 15.7213 30.3752 15.5524C30.3752 15.4016 30.339 15.2689 30.2667 15.1543C30.1943 15.0397 30.0963 14.9507 29.9726 14.8874C29.8489 14.824 29.7117 14.7924 29.5609 14.7924C29.398 14.7924 29.2472 14.8301 29.1085 14.9055C28.9728 14.9809 28.8627 15.0849 28.7782 15.2176C28.6968 15.3503 28.6561 15.5041 28.6561 15.6791H26.3398C26.3458 15.0155 26.4966 14.4772 26.7922 14.064C27.0877 13.6478 27.4798 13.3431 27.9684 13.1501C28.457 12.9541 28.9939 12.856 29.579 12.856C30.2244 12.856 30.8005 12.9511 31.3072 13.1411C31.8139 13.3281 32.2135 13.6116 32.5061 13.9916C32.7986 14.3686 32.9449 14.8406 32.9449 15.4076C32.9449 15.7726 32.8816 16.0938 32.7549 16.3713C32.6313 16.6457 32.4578 16.8885 32.2346 17.0996C32.0145 17.3077 31.7566 17.4978 31.461 17.6697C31.2439 17.7963 31.0614 17.9275 30.9136 18.0633C30.7658 18.196 30.6542 18.3483 30.5788 18.5202C30.5034 18.6891 30.4657 18.8942 30.4657 19.1355V19.3526H28.3304ZM29.4342 22.3928C29.0844 22.3928 28.7843 22.2707 28.5339 22.0264C28.2866 21.779 28.1645 21.479 28.1675 21.1261C28.1645 20.7822 28.2866 20.4882 28.5339 20.2439C28.7843 19.9996 29.0844 19.8774 29.4342 19.8774C29.766 19.8774 30.0586 19.9996 30.3119 20.2439C30.5683 20.4882 30.698 20.7822 30.701 21.1261C30.698 21.3613 30.6361 21.5755 30.5155 21.7685C30.3979 21.9585 30.244 22.1108 30.054 22.2254C29.864 22.337 29.6574 22.3928 29.4342 22.3928Z" fill="white"/>
</svg>
