<svg width="79" height="85" viewBox="0 0 79 85" fill="none" xmlns="http://www.w3.org/2000/svg">
<g clip-path="url(#clip0_2142_130)">
<mask id="mask0_2142_130" style="mask-type:luminance" maskUnits="userSpaceOnUse" x="0" y="0" width="78" height="85">
<path d="M77.6203 0.650391H0.347656V84.3625H77.6203V0.650391Z" fill="white"/>
</mask>
<g mask="url(#mask0_2142_130)">
<path d="M72.8757 41.7656L54.9157 30.445C54.7029 30.3116 54.4229 30.3116 54.2102 30.445L36.2498 41.7656C36.0574 41.892 35.9375 42.1051 35.9375 42.3314V43.6634C35.9375 44.0293 36.2368 44.3291 36.6024 44.3291H38.5979V46.3268C38.5979 46.6927 38.8969 46.9924 39.2625 46.9924H69.8614C70.227 46.9924 70.5263 46.6927 70.5263 46.3268V44.3291H72.5218C72.8873 44.3291 73.1867 44.0293 73.1867 43.6634V42.3314C73.1867 42.1051 73.0664 41.892 72.874 41.7656H72.8757ZM54.5632 42.9979C50.167 42.8626 50.1679 36.4726 54.5632 36.3382C58.9595 36.4736 58.9586 42.8635 54.5632 42.9979Z" fill="white"/>
<path d="M57.8864 58.9802V48.3253H51.2344V58.9802H57.8864Z" fill="white"/>
<path d="M48.574 58.9802V48.3253H41.9219V58.9802H48.574Z" fill="#FF9657"/>
<path d="M67.1992 58.9802V48.3253H60.5469V58.9802H67.1992Z" fill="#09AD4F"/>
<path d="M72.5218 62.9758H70.5263V60.978C70.5263 60.6121 70.227 60.3124 69.8614 60.3124C68.1494 60.3124 62.3616 60.3124 60.5489 60.3124C57.3748 60.3124 51.7493 60.3124 48.5752 60.3124C46.7501 60.3124 41.0072 60.3124 39.2625 60.3124C38.8969 60.3124 38.5979 60.6121 38.5979 60.978V62.9758H36.6023C36.2368 62.9758 35.9375 63.2754 35.9375 63.6413V66.9712C35.9375 67.3371 36.2368 67.6368 36.6023 67.6368H72.5225C72.888 67.6368 73.1875 67.3371 73.1875 66.9712V63.6413C73.1875 63.2754 72.8873 62.9758 72.5218 62.9758Z" fill="white"/>
<path d="M22.7803 33.7333H25.8292C28.0674 33.7333 28.0683 30.3442 25.8292 30.3442H22.7803C20.542 30.3442 20.542 33.7333 22.7803 33.7333Z" fill="white"/>
<path d="M17.4235 64.2292H14.3747C12.1355 64.2292 12.1355 67.6174 14.3747 67.6174H17.4235C19.6619 67.6174 19.6619 64.2292 17.4235 64.2292Z" fill="white"/>
<path d="M30.5756 30.3451C28.3513 30.3451 28.3496 33.7342 30.5756 33.7342H39.8386C42.0645 33.7342 42.0645 37.1223 39.8386 37.1223H9.99912C7.7723 37.1223 7.77319 40.5105 9.99912 40.5105H23.5445C25.7714 40.5105 25.7652 43.8985 23.5445 43.8985H18.9338C16.7122 43.8985 16.7078 47.2867 18.9338 47.2867H32.9912C35.2181 47.2867 35.2172 50.6748 32.9912 50.6748H2.36509C0.13828 50.6748 0.139162 54.0639 2.36509 54.0639H21.2453C23.4721 54.0639 23.4678 57.452 21.2453 57.452H16.9392C14.7142 57.452 14.7133 60.8402 16.9392 60.8402H29.5212C31.748 60.8402 31.7455 64.2282 29.5212 64.2282H22.4903C20.2652 64.2282 20.2643 67.6164 22.4903 67.6164H35.6481C35.3576 67.5448 35.2287 67.2823 35.2287 66.9702V63.4636C35.2287 62.9625 35.6605 62.5328 36.0702 62.5328H37.7125V60.8853C37.7125 60.1145 38.3367 59.4895 39.1066 59.4895H40.7816V47.7737H38.4214C37.9809 47.7737 37.6241 47.4166 37.6241 46.9755V45.0565C37.6241 44.947 37.5359 44.8585 37.4263 44.8585H36.0913C35.6163 44.8585 35.2287 44.4696 35.2287 43.995V42.0652C35.2287 41.8389 35.3487 41.6259 35.5412 41.4996L53.06 30.4442C53.1651 30.3788 53.286 30.3451 53.4078 30.3442L30.5756 30.3451Z" fill="white"/>
<path d="M14.2708 47.2867C16.5092 47.2867 16.5092 43.8986 14.2708 43.8986H11.2221C8.98283 43.8986 8.98372 47.2867 11.2221 47.2867H14.2708Z" fill="white"/>
</g>
<path fill-rule="evenodd" clip-rule="evenodd" d="M78.637 30.6681C78.637 35.7801 74.4928 39.9241 69.381 39.9241C64.2691 39.9241 60.125 35.7801 60.125 30.6681C60.125 25.5562 64.2691 21.4122 69.381 21.4122C74.4928 21.4122 78.637 25.5562 78.637 30.6681ZM68.2815 27.2598C68.2815 26.6205 68.7998 26.1023 69.4391 26.1023C70.0784 26.1023 70.5966 26.6205 70.5966 27.2598V29.4697H72.8056C73.4449 29.4697 73.9631 29.988 73.9631 30.6271C73.9631 31.2664 73.4449 31.7847 72.8056 31.7847H70.5966V33.9936C70.5966 34.633 70.0784 35.1512 69.4391 35.1512C68.7998 35.1512 68.2815 34.633 68.2815 33.9936V31.7847H66.0718C65.4325 31.7847 64.9142 31.2664 64.9142 30.6271C64.9142 29.988 65.4325 29.4697 66.0718 29.4697H68.2815V27.2598Z" fill="white"/>
<path d="M70.5963 27.2576C70.5963 26.6183 70.0781 26.1001 69.4388 26.1001C68.7995 26.1001 68.2812 26.6183 68.2812 27.2576V33.9914C68.2812 34.6307 68.7995 35.1489 69.4388 35.1489C70.0781 35.1489 70.5963 34.6307 70.5963 33.9914V27.2576Z" fill="#ED752E"/>
<path d="M66.0715 29.467C65.4322 29.467 64.9141 29.9853 64.9141 30.6246C64.9141 31.2639 65.4322 31.7821 66.0715 31.7821H72.8053C73.4446 31.7821 73.9628 31.2639 73.9628 30.6246C73.9628 29.9853 73.4446 29.467 72.8053 29.467H66.0715Z" fill="#ED752E"/>
<path d="M68.9756 39.9243C74.31 39.9243 78.6346 35.5996 78.6346 30.265C78.6346 24.9305 74.31 20.6061 68.9756 20.6061C63.641 20.6061 59.3164 24.9305 59.3164 30.265C59.3164 35.5996 63.641 39.9243 68.9756 39.9243Z" fill="white"/>
<path d="M69.0801 31.6529C68.2118 31.6529 67.5078 30.949 67.5078 30.0807C67.5078 29.2124 68.2118 28.5084 69.0801 28.5084C69.9485 28.5084 70.6523 29.2124 70.6523 30.0807C70.6523 30.949 69.9485 31.6529 69.0801 31.6529Z" fill="#ED752E"/>
<path d="M63.2071 29.9476C63.6693 28.7518 64.4719 27.7176 65.5156 26.9729C66.5592 26.2283 67.7981 25.8057 69.0793 25.7576C70.3605 25.8057 71.5995 26.2283 72.6431 26.9729C73.6867 27.7176 74.4893 28.7518 74.9516 29.9476C74.9828 30.034 74.9828 30.1285 74.9516 30.2148C74.4893 31.4107 73.6867 32.4449 72.6431 33.1895C71.5995 33.9342 70.3605 34.3567 69.0793 34.4049C67.7981 34.3567 66.5592 33.9342 65.5156 33.1895C64.4719 32.4449 63.6693 31.4107 63.2071 30.2148C63.1758 30.1285 63.1758 30.034 63.2071 29.9476ZM69.0793 32.6361C69.5846 32.6361 70.0785 32.4862 70.4987 32.2055C70.9189 31.9248 71.2464 31.5257 71.4397 31.0589C71.633 30.5921 71.6836 30.0784 71.5851 29.5828C71.4865 29.0871 71.2432 28.632 70.8859 28.2746C70.5285 27.9173 70.0734 27.6741 69.5778 27.5754C69.0822 27.4769 68.5684 27.5275 68.1017 27.7208C67.6348 27.9141 67.2358 28.2416 66.9551 28.6619C66.6743 29.082 66.5244 29.5759 66.5244 30.0812C66.5254 30.7585 66.795 31.4078 67.2739 31.8866C67.7528 32.3655 68.402 32.6351 69.0793 32.6361Z" fill="#ED752E"/>
</g>
<defs>
<clipPath id="clip0_2142_130">
<rect width="78.5606" height="85" fill="white" transform="translate(0.0742188)"/>
</clipPath>
</defs>
</svg>
