<svg width="23" height="23" viewBox="0 0 23 23" fill="none" xmlns="http://www.w3.org/2000/svg">
<g clip-path="url(#clip0_96_7787)">
<path d="M2.2549 19.0915C2.39599 17.924 2.52863 16.8216 2.66674 15.6785C3.71945 16.1276 4.75427 16.5687 5.83182 17.0283C5.48506 17.2315 5.17059 17.4153 4.83426 17.612C5.2779 18.1048 5.76227 18.4998 6.28639 18.8456C7.54974 19.6787 8.9353 20.1526 10.4455 20.2932C14.7076 20.6902 19.0083 17.7213 19.8191 13.038C20.0784 11.5407 19.9522 10.0826 19.4549 8.65382C19.3963 8.48491 19.4221 8.4089 19.5771 8.32494C20.0044 8.09244 20.4217 7.84206 20.8673 7.58472C20.9051 7.65775 20.9433 7.71686 20.9672 7.78145C21.5151 9.2455 21.7581 10.7528 21.6274 12.3177C21.3815 15.2696 20.137 17.7114 17.8716 19.6151C16.3182 20.9207 14.5208 21.7041 12.5008 21.949C9.60895 22.2993 7.00326 21.5764 4.69665 19.8049C4.24705 19.4596 3.8506 19.0433 3.44125 18.6483C3.32599 18.5366 3.24451 18.5147 3.10591 18.6021C2.8431 18.7676 2.56788 18.9136 2.25391 19.0935L2.2549 19.0915Z" fill="white"/>
<path d="M17.5432 5.44762C17.3643 5.2956 17.2113 5.1719 17.0653 5.04025C15.713 3.82459 14.1337 3.10722 12.3348 2.84541C8.1637 2.23833 3.89673 4.88028 2.71039 9.18053C2.22452 10.9417 2.26725 12.6844 2.86986 14.4088C2.93345 14.5911 2.91308 14.6825 2.73672 14.7769C2.30948 15.005 1.89465 15.2558 1.41475 15.5316C1.24137 14.9369 1.04414 14.3869 0.920934 13.8206C-0.274851 8.31462 2.93643 2.90204 8.38229 1.44445C12.3909 0.371869 15.8988 1.4211 18.8219 4.37206C18.9953 4.54693 19.1136 4.57475 19.3133 4.43962C19.5428 4.28413 19.7937 4.16092 20.1052 3.98357C19.9646 5.15302 19.8324 6.25441 19.6958 7.39456C18.6262 6.93751 17.6083 6.50231 16.5372 6.04477C16.8839 5.83909 17.178 5.66472 17.5432 5.44762Z" fill="white"/>
<path d="M13.5506 16.8024C12.6713 16.8024 11.8705 16.8059 11.0696 16.7964C10.9971 16.7955 10.9047 16.7249 10.857 16.6608C9.9369 15.4303 9.0213 14.1962 8.1077 12.9607C8.061 12.8976 8.0148 12.8156 8.01331 12.7416C8.00437 12.2965 8.00884 11.8509 8.00884 11.361C8.40876 11.361 8.79328 11.3561 9.1773 11.362C9.70042 11.3705 10.0735 11.1231 10.3423 10.6948C10.392 10.6153 10.4163 10.5204 10.469 10.3928H7.7207C7.91445 9.8602 8.08832 9.3644 8.28108 8.87556C8.30145 8.82339 8.42962 8.78961 8.50812 8.78862C9.07844 8.78117 9.64876 8.78464 10.2191 8.78464C10.307 8.78464 10.3949 8.78464 10.4864 8.78464C10.4178 8.28338 9.91156 7.86706 9.38446 7.8611C8.84792 7.85514 8.31188 7.85961 7.74752 7.85961C7.7669 7.77863 7.77584 7.71753 7.79621 7.6599C7.93183 7.27936 8.07789 6.90229 8.20259 6.51827C8.26071 6.33892 8.3551 6.27832 8.54239 6.27931C9.65819 6.28676 10.7745 6.28279 11.8903 6.28279C12.6837 6.28279 13.4776 6.28229 14.271 6.28328C14.3663 6.28328 14.4617 6.29322 14.5974 6.30117C14.4121 6.81734 14.2446 7.29724 14.0613 7.77069C14.0424 7.81937 13.9277 7.85315 13.8566 7.85514C13.5099 7.86359 13.1621 7.85862 12.8154 7.85961C12.7359 7.85961 12.6569 7.86706 12.5804 7.87104C12.708 8.16266 12.8213 8.44186 12.9564 8.70963C12.9808 8.75782 13.0955 8.77918 13.1686 8.78017C13.5571 8.78713 13.9456 8.78365 14.3341 8.78365C14.414 8.78365 14.494 8.78365 14.6157 8.78365C14.424 9.31274 14.2496 9.80804 14.0588 10.2979C14.04 10.3471 13.9257 10.3808 13.8546 10.3838C13.574 10.3938 13.2923 10.3784 13.0121 10.3947C12.9346 10.3992 12.8223 10.4653 12.793 10.5324C12.3126 11.6198 11.4949 12.2985 10.3458 12.5871C10.3314 12.5906 10.3199 12.606 10.2653 12.6467C11.3463 14.0134 12.4269 15.3796 13.5511 16.8014L13.5506 16.8024Z" fill="white"/>
</g>
<defs>
<clipPath id="clip0_96_7787">
<rect width="22" height="22" fill="white" transform="translate(0.5 0.5)"/>
</clipPath>
</defs>
</svg>
