<svg width="29" height="28" viewBox="0 0 29 28" fill="none" xmlns="http://www.w3.org/2000/svg">
<g clip-path="url(#clip0_437_430)">
<mask id="mask0_437_430" style="mask-type:luminance" maskUnits="userSpaceOnUse" x="0" y="2" width="29" height="25">
<path d="M28.1231 2.16064H0.914062V26.4273H28.1231V2.16064Z" fill="white"/>
</mask>
<g mask="url(#mask0_437_430)">
<path d="M6.6537 11.9121C7.24751 11.5739 7.76254 11.2799 8.27755 10.9871C8.55492 10.8295 8.82909 10.6643 9.11222 10.5176C9.76304 10.18 10.526 10.3972 10.8872 11.014C11.2485 11.6303 11.0679 12.4188 10.442 12.8051C9.80852 13.1958 9.15321 13.5527 8.50688 13.9223C7.58317 14.4506 6.66011 14.9811 5.73384 15.5044C4.91583 15.967 4.15675 15.742 3.72757 14.9087C2.84614 13.1965 1.96792 11.4823 1.09418 9.76619C0.769411 9.12883 0.892402 8.47096 1.39397 8.06292C2.04991 7.52932 3.0018 7.71701 3.41689 8.47672C3.72181 9.03531 4.00174 9.60734 4.331 10.2466C4.40657 10.0865 4.4559 9.99168 4.49818 9.89303C6.25847 5.78121 9.31784 3.20932 13.7083 2.37209C20.2768 1.11977 26.6754 5.55828 27.9104 12.128C29.141 18.6734 24.9119 25.0169 18.396 26.398C13.2926 27.4799 7.99057 25.1424 5.34245 20.6431C4.80246 19.7258 5.23869 18.7329 6.26487 18.5439C6.76133 18.4523 7.29427 18.7265 7.61584 19.2627C8.16353 20.1749 8.82845 20.9877 9.64005 21.6751C11.2754 23.0594 13.1561 23.8267 15.3034 23.9663C20.0013 24.2706 24.2682 21.0492 25.2514 16.3916C26.3916 10.9935 22.7673 5.89394 17.5608 4.9869C12.8526 4.16696 8.3019 6.86505 6.78695 11.3836C6.7389 11.5278 6.712 11.6789 6.6537 11.9121Z" fill="#0D0D0D"/>
<path d="M14.5379 11.6829C14.5379 10.788 14.5302 9.89372 14.5405 8.99882C14.5481 8.33965 14.9888 7.78106 15.5686 7.66063C16.2059 7.52802 16.8337 7.81821 17.0758 8.39922C17.1662 8.61638 17.1917 8.87326 17.193 9.11284C17.2033 10.5721 17.2033 12.0307 17.193 13.4899C17.1912 13.745 17.2706 13.9276 17.4505 14.1062C18.594 15.2369 19.733 16.372 20.8629 17.5167C21.6367 18.3008 21.3222 19.5211 20.285 19.7889C19.829 19.9067 19.4049 19.8062 19.0731 19.4782C17.6799 18.1003 16.2969 16.7122 14.9145 15.3234C14.6378 15.0446 14.5379 14.6892 14.5372 14.3023C14.5372 13.4292 14.5379 12.556 14.5379 11.6829Z" fill="black"/>
</g>
</g>
<defs>
<clipPath id="clip0_437_430">
<rect width="28" height="28" fill="white" transform="translate(0.890625)"/>
</clipPath>
</defs>
</svg>
