<svg width="10" height="15" viewBox="0 0 10 15" fill="none" xmlns="http://www.w3.org/2000/svg">
<g clip-path="url(#clip0_96_7890)">
<path d="M0.619141 2.4331C0.619141 1.88082 0.831217 1.43311 1.09282 1.43311H8.65838C8.91995 1.43311 9.13206 1.88082 9.13206 2.43311V5.47861H0.619141V2.4331Z" fill="#FAB446"/>
<path d="M0.619141 12.5693C0.619141 13.1216 0.831217 13.5693 1.09282 13.5693H8.65838C8.91995 13.5693 9.13206 13.1216 9.13206 12.5693V9.52383H0.619141V12.5693Z" fill="#73AF00"/>
<path d="M0.619141 9.54591H9.13206V5.5004H0.619141V9.54591Z" fill="white"/>
<path d="M5.508 6.42212L5.05469 7.27759L5.09538 7.39087L5.508 6.42212Z" fill="#41479B"/>
<path d="M5.68358 6.9371L5.10938 7.35947L5.12638 7.49707L5.68358 6.9371Z" fill="#41479B"/>
<path d="M5.73293 7.54932L5.12548 7.49445L5.11719 7.63557L5.73293 7.54932Z" fill="#41479B"/>
<path d="M5.68408 8.13756L5.13034 7.60724L5.09766 7.73159L5.68408 8.13756Z" fill="#41479B"/>
<path d="M5.51958 8.68579L5.11207 7.73312L5.05859 7.81964L5.51958 8.68579Z" fill="#41479B"/>
<path d="M5.27023 9.02733L5.06304 7.82053L4.99805 7.85808L5.27023 9.02733Z" fill="#41479B"/>
<path d="M4.98026 9.11954L4.99471 7.83626L4.92773 7.82147L4.98026 9.11954Z" fill="#41479B"/>
<path d="M4.67578 9.02052L4.95479 7.87999L4.89762 7.80481L4.67578 9.02052Z" fill="#41479B"/>
<path d="M4.43555 8.68348L4.89191 7.83524L4.85161 7.72131L4.43555 8.68348Z" fill="#41479B"/>
<path d="M4.26953 8.15193L4.84586 7.74281L4.8296 7.60483L4.26953 8.15193Z" fill="#41479B"/>
<path d="M4.21094 7.52118L4.81777 7.60197L4.8274 7.46124L4.21094 7.52118Z" fill="#41479B"/>
<path d="M4.26562 6.92419L4.81707 7.46499L4.85026 7.34126L4.26562 6.92419Z" fill="#41479B"/>
<path d="M4.42578 6.41574L4.84803 7.33938L4.9001 7.24917L4.42578 6.41574Z" fill="#41479B"/>
<path d="M4.69531 6.07257L4.89778 7.28296L4.96289 7.24654L4.69531 6.07257Z" fill="#41479B"/>
<path d="M4.97676 5.98029L4.9375 7.26125L5.00415 7.2818L4.97676 5.98029Z" fill="#41479B"/>
<path d="M5.25371 6.05673L5.01758 7.23962L5.07736 7.30519L5.25371 6.05673Z" fill="#41479B"/>
<path fill-rule="evenodd" clip-rule="evenodd" d="M4.96624 8.9234C5.32538 8.9234 5.61656 8.30875 5.61656 7.55054C5.61656 6.79234 5.32538 6.17769 4.96624 6.17769C4.60708 6.17769 4.31593 6.79234 4.31593 7.55054C4.31593 8.30875 4.60708 8.9234 4.96624 8.9234ZM4.96624 9.2234C5.40387 9.2234 5.75866 8.47444 5.75866 7.55054C5.75866 6.62665 5.40387 5.87769 4.96624 5.87769C4.5286 5.87769 4.17383 6.62665 4.17383 7.55054C4.17383 8.47444 4.5286 9.2234 4.96624 9.2234Z" fill="#41479B"/>
<path d="M5.05962 7.55046C5.05962 7.64899 5.02177 7.72886 4.97513 7.72886C4.92846 7.72886 4.89062 7.64899 4.89062 7.55046C4.89062 7.45194 4.92846 7.37207 4.97513 7.37207C5.02177 7.37207 5.05962 7.45194 5.05962 7.55046Z" fill="#41479B"/>
<path fill-rule="evenodd" clip-rule="evenodd" d="M5.14375 7.54958C5.14375 7.74497 5.06872 7.90337 4.97617 7.90337C4.88362 7.90337 4.80859 7.74497 4.80859 7.54958C4.80859 7.3542 4.88362 7.1958 4.97617 7.1958C5.06872 7.1958 5.14375 7.3542 5.14375 7.54958ZM4.97617 7.80337C5.04257 7.80337 5.09639 7.68975 5.09639 7.54958C5.09639 7.40942 5.04257 7.2958 4.97617 7.2958C4.90978 7.2958 4.85596 7.40942 4.85596 7.54958C4.85596 7.68975 4.90978 7.80337 4.97617 7.80337Z" fill="#41479B"/>
</g>
<defs>
<clipPath id="clip0_96_7890">
<rect width="9" height="14" fill="white" transform="translate(0.25 0.5)"/>
</clipPath>
</defs>
</svg>
