<svg width="39" height="19" viewBox="0 0 39 19" fill="none" xmlns="http://www.w3.org/2000/svg">
<path d="M28.5076 9.02644L26.6298 7.08569L27.0082 4.41156C27.033 4.2366 26.9887 4.05888 26.8849 3.91593C26.781 3.77298 26.6256 3.67601 26.4516 3.6455L23.7917 3.17912L22.5261 0.793422C22.4432 0.637346 22.303 0.519569 22.135 0.464969C21.9669 0.41037 21.7843 0.423223 21.6255 0.500816L19.1992 1.68704L16.773 0.500906C16.6142 0.423286 16.4315 0.410417 16.2635 0.465019C16.0954 0.51962 15.9552 0.637414 15.8724 0.793513L14.6067 3.17921L11.9468 3.64559C11.7728 3.6761 11.6174 3.77307 11.5135 3.91602C11.4097 4.05897 11.3655 4.23669 11.3902 4.41165L11.7685 7.08578L9.89077 9.02644C9.7679 9.15343 9.69922 9.3232 9.69922 9.4999C9.69922 9.67659 9.7679 9.84636 9.89077 9.97335L11.7684 11.9142L11.3901 14.5884C11.3654 14.7634 11.4096 14.941 11.5135 15.084C11.6173 15.2269 11.7726 15.3239 11.9466 15.3545L14.6066 15.8211L15.8724 18.2066C15.9552 18.3626 16.0954 18.4804 16.2634 18.535C16.4315 18.5896 16.6141 18.5768 16.7729 18.4992L19.1991 17.3133L21.6255 18.4992C21.7843 18.5767 21.9669 18.5896 22.1349 18.535C22.3029 18.4804 22.4432 18.3626 22.526 18.2066L23.7917 15.8211L26.4517 15.3545C26.6257 15.3239 26.7811 15.227 26.8849 15.084C26.9887 14.9411 27.033 14.7634 27.0082 14.5884L26.6298 11.9142L28.5076 9.97335C28.6305 9.84635 28.6992 9.67657 28.6991 9.49988C28.6991 9.32319 28.6304 9.15342 28.5076 9.02644ZM25.4197 11.2066C25.3477 11.2811 25.2936 11.3711 25.2615 11.4697C25.2295 11.5683 25.2204 11.6728 25.235 11.7755L25.5677 14.127L23.2287 14.5374C23.1266 14.5553 23.0299 14.5963 22.9461 14.6572C22.8623 14.7181 22.7934 14.7974 22.7448 14.8889L21.6318 16.9866L19.4981 15.9438C19.405 15.8982 19.3028 15.8746 19.1991 15.8746C19.0955 15.8746 18.9932 15.8982 18.9001 15.9438L16.7666 16.9866L15.6536 14.8889C15.605 14.7974 15.5361 14.7181 15.4523 14.6572C15.3685 14.5963 15.2718 14.5553 15.1698 14.5374L12.8307 14.127L13.1634 11.7755C13.1779 11.6729 13.1688 11.5683 13.1368 11.4697C13.1047 11.3711 13.0506 11.2812 12.9785 11.2067L11.3275 9.49999L12.9785 7.79347C13.0506 7.71898 13.1047 7.62902 13.1367 7.53045C13.1688 7.43188 13.1779 7.32731 13.1634 7.22469L12.8307 4.87321L15.1697 4.46312C15.2718 4.44522 15.3684 4.40425 15.4523 4.34333C15.5362 4.28241 15.605 4.20316 15.6537 4.1116L16.7666 2.01369L18.9 3.05674C18.9931 3.10231 19.0954 3.12599 19.1991 3.12599C19.3027 3.12599 19.405 3.10231 19.4981 3.05674L21.6317 2.01369L22.7448 4.1116C22.7933 4.20316 22.8622 4.28242 22.946 4.34334C23.0299 4.40426 23.1266 4.44523 23.2287 4.46312L25.5676 4.87321L25.2349 7.22469C25.2203 7.32732 25.2294 7.43192 25.2615 7.5305C25.2935 7.62909 25.3476 7.71906 25.4197 7.79356L27.0708 9.49999L25.4197 11.2066Z" fill="white" stroke="#E8E8E8" stroke-width="0.090787"/>
<path d="M17.0356 8.98604C17.9447 8.98604 18.6843 8.24649 18.6843 7.33753C18.6843 6.42821 17.9447 5.68848 17.0356 5.68848C16.1264 5.68848 15.3867 6.42821 15.3867 7.33753C15.3867 8.24658 16.1265 8.98604 17.0356 8.98604ZM17.0356 6.77792C17.1839 6.77814 17.3261 6.83718 17.4309 6.94209C17.5358 7.047 17.5947 7.18921 17.5948 7.33753C17.5946 7.48578 17.5357 7.62789 17.4308 7.7327C17.326 7.83751 17.1838 7.89645 17.0356 7.8966C16.8873 7.89648 16.7452 7.83755 16.6403 7.73274C16.5354 7.62793 16.4764 7.4858 16.4762 7.33753C16.4763 7.18919 16.5353 7.04696 16.6402 6.94205C16.745 6.83714 16.8873 6.77811 17.0356 6.77792ZM22.4872 6.21114C22.4366 6.16055 22.3766 6.12042 22.3105 6.09304C22.2444 6.06567 22.1736 6.05158 22.1021 6.05158C22.0305 6.05158 21.9597 6.06567 21.8936 6.09304C21.8275 6.12042 21.7675 6.16055 21.7169 6.21114L15.9095 12.0185C15.8589 12.0691 15.8188 12.1292 15.7914 12.1952C15.764 12.2613 15.7499 12.3322 15.7499 12.4037C15.7499 12.4752 15.764 12.5461 15.7914 12.6122C15.8188 12.6783 15.8589 12.7383 15.9095 12.7889C15.9601 12.8395 16.0202 12.8796 16.0862 12.907C16.1523 12.9343 16.2232 12.9484 16.2947 12.9484C16.3662 12.9484 16.4371 12.9343 16.5032 12.9069C16.5693 12.8796 16.6293 12.8394 16.6799 12.7888L22.4873 6.98147C22.5894 6.8793 22.6468 6.74075 22.6468 6.59628C22.6467 6.45182 22.5893 6.31328 22.4872 6.21114ZM21.3608 10.0139C20.4517 10.0139 19.7123 10.7535 19.7123 11.6624C19.7123 12.5718 20.4518 13.3115 21.3608 13.3115C22.2701 13.3115 23.0098 12.5718 23.0098 11.6624C23.0098 10.7535 22.2701 10.0139 21.3608 10.0139ZM21.3608 12.2221C21.0526 12.2221 20.8017 11.9711 20.8017 11.6625C20.8019 11.5143 20.8609 11.3722 20.9657 11.2674C21.0705 11.1626 21.2126 11.1037 21.3608 11.1035C21.6693 11.1035 21.9204 11.3543 21.9204 11.6625C21.9202 11.8109 21.8612 11.9531 21.7563 12.0581C21.6514 12.163 21.5091 12.222 21.3608 12.2221Z" fill="white" stroke="#E8E8E8" stroke-width="0.090787"/>
</svg>
