<svg width="23" height="23" viewBox="0 0 23 23" fill="none" xmlns="http://www.w3.org/2000/svg">
<g clip-path="url(#clip0_96_7765)">
<mask id="mask0_96_7765" style="mask-type:luminance" maskUnits="userSpaceOnUse" x="0" y="1" width="19" height="22">
<path d="M0.804688 1.3H18.5957V22.3H0.804688V1.3Z" fill="#fff"/>
</mask>
<g mask="url(#mask0_96_7765)">
<path d="M9.78289 20.684C11.5729 20.652 13.4039 20.461 15.1509 19.774C15.6839 19.563 16.1929 19.307 16.6149 18.904C16.8669 18.664 16.9869 18.386 16.9689 18.029C16.8729 16.148 16.1979 14.519 14.8789 13.167C14.6609 12.945 14.5119 12.702 14.5719 12.382C14.6319 12.059 14.8179 11.834 15.1389 11.736C15.4719 11.634 15.7479 11.738 15.9869 11.976C16.8124 12.7959 17.467 13.7714 17.9129 14.846C18.3189 15.823 18.5189 16.846 18.5879 17.903C18.6579 18.991 18.1759 19.777 17.3419 20.396C16.3729 21.116 15.2599 21.508 14.1029 21.789C12.0179 22.295 9.90489 22.411 7.77089 22.201C6.16689 22.042 4.59989 21.731 3.13389 21.031C2.78619 20.8632 2.45246 20.668 2.13589 20.447C1.17289 19.784 0.712886 18.89 0.819886 17.69C1.01389 15.488 1.83789 13.586 3.38789 12.004C3.65689 11.729 4.01589 11.656 4.33289 11.801C4.64889 11.946 4.85589 12.269 4.79289 12.618C4.76089 12.804 4.66289 13.008 4.53289 13.143C3.41089 14.305 2.72989 15.679 2.50289 17.277C2.47989 17.435 2.48589 17.598 2.45389 17.753C2.33089 18.359 2.57389 18.793 3.05989 19.135C3.84989 19.693 4.74689 19.989 5.66989 20.221C6.99689 20.553 8.35189 20.668 9.78389 20.682V20.683L9.78289 20.684Z" fill="#fff"/>
<path d="M4.05083 6.937C4.04783 3.824 6.57683 1.3 9.69683 1.3C12.8628 1.3 15.3538 3.823 15.3528 7.03C15.3518 10.077 12.7968 12.605 9.71883 12.604C8.97364 12.607 8.23523 12.4625 7.54618 12.1787C6.85714 11.895 6.23109 11.4776 5.70416 10.9507C5.17723 10.4237 4.75985 9.79769 4.47608 9.10865C4.19232 8.4196 4.04779 7.68219 4.05083 6.937ZM5.66483 6.937C5.66683 9.167 7.48583 10.993 9.69883 10.987C10.7704 10.9838 11.797 10.5563 12.5542 9.79809C13.3113 9.03983 13.7372 8.01254 13.7388 6.941C13.7388 4.728 11.9078 2.911 9.67883 2.914C7.49283 2.917 5.66283 4.751 5.66483 6.937Z" fill="#fff"/>
</g>
</g>
<defs>
<clipPath id="clip0_96_7765">
<rect width="22" height="22" fill="#fff" transform="translate(0.5 0.5)"/>
</clipPath>
</defs>
</svg>
