<svg width="119" height="119" viewBox="0 0 119 119" fill="none" xmlns="http://www.w3.org/2000/svg">
<g clip-path="url(#clip0_96_7974)">
<path d="M0.380859 0.5H4.38086V4.5H0.380859V0.5Z" fill="black"/>
<path d="M4.38086 0.5H8.38086V4.5H4.38086V0.5Z" fill="black"/>
<path d="M8.38086 0.5H12.3809V4.5H8.38086V0.5Z" fill="black"/>
<path d="M12.3809 0.5H16.3809V4.5H12.3809V0.5Z" fill="black"/>
<path d="M16.3809 0.5H20.3809V4.5H16.3809V0.5Z" fill="black"/>
<path d="M20.3809 0.5H24.3809V4.5H20.3809V0.5Z" fill="black"/>
<path d="M24.3809 0.5H28.3809V4.5H24.3809V0.5Z" fill="black"/>
<path d="M28.3809 0.5H33.3809V4.5H28.3809V0.5Z" fill="white"/>
<path d="M33.3809 0.5H37.3809V4.5H33.3809V0.5Z" fill="white"/>
<path d="M37.3809 0.5H41.3809V4.5H37.3809V0.5Z" fill="white"/>
<path d="M41.3809 0.5H45.3809V4.5H41.3809V0.5Z" fill="white"/>
<path d="M45.3809 0.5H49.3809V4.5H45.3809V0.5Z" fill="black"/>
<path d="M49.3809 0.5H53.3809V4.5H49.3809V0.5Z" fill="black"/>
<path d="M53.3809 0.5H57.3809V4.5H53.3809V0.5Z" fill="white"/>
<path d="M57.3809 0.5H61.3809V4.5H57.3809V0.5Z" fill="black"/>
<path d="M61.3809 0.5H65.3809V4.5H61.3809V0.5Z" fill="black"/>
<path d="M65.3809 0.5H69.3809V4.5H65.3809V0.5Z" fill="white"/>
<path d="M69.3809 0.5H73.3809V4.5H69.3809V0.5Z" fill="white"/>
<path d="M73.3809 0.5H77.3809V4.5H73.3809V0.5Z" fill="black"/>
<path d="M77.3809 0.5H81.3809V4.5H77.3809V0.5Z" fill="white"/>
<path d="M81.3809 0.5H85.3809V4.5H81.3809V0.5Z" fill="white"/>
<path d="M85.3809 0.5H90.3809V4.5H85.3809V0.5Z" fill="white"/>
<path d="M90.3809 0.5H94.3809V4.5H90.3809V0.5Z" fill="black"/>
<path d="M94.3809 0.5H98.3809V4.5H94.3809V0.5Z" fill="black"/>
<path d="M98.3809 0.5H102.381V4.5H98.3809V0.5Z" fill="black"/>
<path d="M102.381 0.5H106.381V4.5H102.381V0.5Z" fill="black"/>
<path d="M106.381 0.5H110.381V4.5H106.381V0.5Z" fill="black"/>
<path d="M110.381 0.5H114.381V4.5H110.381V0.5Z" fill="black"/>
<path d="M114.381 0.5H118.381V4.5H114.381V0.5Z" fill="black"/>
<path d="M0.380859 4.5H4.38086V8.5H0.380859V4.5Z" fill="black"/>
<path d="M4.38086 4.5H8.38086V8.5H4.38086V4.5Z" fill="white"/>
<path d="M8.38086 4.5H12.3809V8.5H8.38086V4.5Z" fill="white"/>
<path d="M12.3809 4.5H16.3809V8.5H12.3809V4.5Z" fill="white"/>
<path d="M16.3809 4.5H20.3809V8.5H16.3809V4.5Z" fill="white"/>
<path d="M20.3809 4.5H24.3809V8.5H20.3809V4.5Z" fill="white"/>
<path d="M24.3809 4.5H28.3809V8.5H24.3809V4.5Z" fill="black"/>
<path d="M28.3809 4.5H33.3809V8.5H28.3809V4.5Z" fill="white"/>
<path d="M33.3809 4.5H37.3809V8.5H33.3809V4.5Z" fill="white"/>
<path d="M37.3809 4.5H41.3809V8.5H37.3809V4.5Z" fill="black"/>
<path d="M41.3809 4.5H45.3809V8.5H41.3809V4.5Z" fill="black"/>
<path d="M45.3809 4.5H49.3809V8.5H45.3809V4.5Z" fill="white"/>
<path d="M49.3809 4.5H53.3809V8.5H49.3809V4.5Z" fill="white"/>
<path d="M53.3809 4.5H57.3809V8.5H53.3809V4.5Z" fill="white"/>
<path d="M57.3809 4.5H61.3809V8.5H57.3809V4.5Z" fill="black"/>
<path d="M61.3809 4.5H65.3809V8.5H61.3809V4.5Z" fill="white"/>
<path d="M65.3809 4.5H69.3809V8.5H65.3809V4.5Z" fill="black"/>
<path d="M69.3809 4.5H73.3809V8.5H69.3809V4.5Z" fill="white"/>
<path d="M73.3809 4.5H77.3809V8.5H73.3809V4.5Z" fill="white"/>
<path d="M77.3809 4.5H81.3809V8.5H77.3809V4.5Z" fill="white"/>
<path d="M81.3809 4.5H85.3809V8.5H81.3809V4.5Z" fill="black"/>
<path d="M85.3809 4.5H90.3809V8.5H85.3809V4.5Z" fill="white"/>
<path d="M90.3809 4.5H94.3809V8.5H90.3809V4.5Z" fill="black"/>
<path d="M94.3809 4.5H98.3809V8.5H94.3809V4.5Z" fill="white"/>
<path d="M98.3809 4.5H102.381V8.5H98.3809V4.5Z" fill="white"/>
<path d="M102.381 4.5H106.381V8.5H102.381V4.5Z" fill="white"/>
<path d="M106.381 4.5H110.381V8.5H106.381V4.5Z" fill="white"/>
<path d="M110.381 4.5H114.381V8.5H110.381V4.5Z" fill="white"/>
<path d="M114.381 4.5H118.381V8.5H114.381V4.5Z" fill="black"/>
<path d="M0.380859 8.5H4.38086V12.5H0.380859V8.5Z" fill="black"/>
<path d="M4.38086 8.5H8.38086V12.5H4.38086V8.5Z" fill="white"/>
<path d="M8.38086 8.5H12.3809V12.5H8.38086V8.5Z" fill="black"/>
<path d="M12.3809 8.5H16.3809V12.5H12.3809V8.5Z" fill="black"/>
<path d="M16.3809 8.5H20.3809V12.5H16.3809V8.5Z" fill="black"/>
<path d="M20.3809 8.5H24.3809V12.5H20.3809V8.5Z" fill="white"/>
<path d="M24.3809 8.5H28.3809V12.5H24.3809V8.5Z" fill="black"/>
<path d="M28.3809 8.5H33.3809V12.5H28.3809V8.5Z" fill="white"/>
<path d="M33.3809 8.5H37.3809V12.5H33.3809V8.5Z" fill="white"/>
<path d="M37.3809 8.5H41.3809V12.5H37.3809V8.5Z" fill="white"/>
<path d="M41.3809 8.5H45.3809V12.5H41.3809V8.5Z" fill="white"/>
<path d="M45.3809 8.5H49.3809V12.5H45.3809V8.5Z" fill="white"/>
<path d="M49.3809 8.5H53.3809V12.5H49.3809V8.5Z" fill="black"/>
<path d="M53.3809 8.5H57.3809V12.5H53.3809V8.5Z" fill="white"/>
<path d="M57.3809 8.5H61.3809V12.5H57.3809V8.5Z" fill="white"/>
<path d="M61.3809 8.5H65.3809V12.5H61.3809V8.5Z" fill="white"/>
<path d="M65.3809 8.5H69.3809V12.5H65.3809V8.5Z" fill="black"/>
<path d="M69.3809 8.5H73.3809V12.5H69.3809V8.5Z" fill="white"/>
<path d="M73.3809 8.5H77.3809V12.5H73.3809V8.5Z" fill="white"/>
<path d="M77.3809 8.5H81.3809V12.5H77.3809V8.5Z" fill="black"/>
<path d="M81.3809 8.5H85.3809V12.5H81.3809V8.5Z" fill="black"/>
<path d="M85.3809 8.5H90.3809V12.5H85.3809V8.5Z" fill="white"/>
<path d="M90.3809 8.5H94.3809V12.5H90.3809V8.5Z" fill="black"/>
<path d="M94.3809 8.5H98.3809V12.5H94.3809V8.5Z" fill="white"/>
<path d="M98.3809 8.5H102.381V12.5H98.3809V8.5Z" fill="black"/>
<path d="M102.381 8.5H106.381V12.5H102.381V8.5Z" fill="black"/>
<path d="M106.381 8.5H110.381V12.5H106.381V8.5Z" fill="black"/>
<path d="M110.381 8.5H114.381V12.5H110.381V8.5Z" fill="white"/>
<path d="M114.381 8.5H118.381V12.5H114.381V8.5Z" fill="black"/>
<path d="M0.380859 12.5H4.38086V16.5H0.380859V12.5Z" fill="black"/>
<path d="M4.38086 12.5H8.38086V16.5H4.38086V12.5Z" fill="white"/>
<path d="M8.38086 12.5H12.3809V16.5H8.38086V12.5Z" fill="black"/>
<path d="M12.3809 12.5H16.3809V16.5H12.3809V12.5Z" fill="black"/>
<path d="M16.3809 12.5H20.3809V16.5H16.3809V12.5Z" fill="black"/>
<path d="M20.3809 12.5H24.3809V16.5H20.3809V12.5Z" fill="white"/>
<path d="M24.3809 12.5H28.3809V16.5H24.3809V12.5Z" fill="black"/>
<path d="M28.3809 12.5H33.3809V16.5H28.3809V12.5Z" fill="white"/>
<path d="M33.3809 12.5H37.3809V16.5H33.3809V12.5Z" fill="black"/>
<path d="M37.3809 12.5H41.3809V16.5H37.3809V12.5Z" fill="white"/>
<path d="M41.3809 12.5H45.3809V16.5H41.3809V12.5Z" fill="white"/>
<path d="M45.3809 12.5H49.3809V16.5H45.3809V12.5Z" fill="white"/>
<path d="M49.3809 12.5H53.3809V16.5H49.3809V12.5Z" fill="black"/>
<path d="M53.3809 12.5H57.3809V16.5H53.3809V12.5Z" fill="white"/>
<path d="M57.3809 12.5H61.3809V16.5H57.3809V12.5Z" fill="white"/>
<path d="M61.3809 12.5H65.3809V16.5H61.3809V12.5Z" fill="white"/>
<path d="M65.3809 12.5H69.3809V16.5H65.3809V12.5Z" fill="white"/>
<path d="M69.3809 12.5H73.3809V16.5H69.3809V12.5Z" fill="black"/>
<path d="M73.3809 12.5H77.3809V16.5H73.3809V12.5Z" fill="black"/>
<path d="M77.3809 12.5H81.3809V16.5H77.3809V12.5Z" fill="black"/>
<path d="M81.3809 12.5H85.3809V16.5H81.3809V12.5Z" fill="black"/>
<path d="M85.3809 12.5H90.3809V16.5H85.3809V12.5Z" fill="white"/>
<path d="M90.3809 12.5H94.3809V16.5H90.3809V12.5Z" fill="black"/>
<path d="M94.3809 12.5H98.3809V16.5H94.3809V12.5Z" fill="white"/>
<path d="M98.3809 12.5H102.381V16.5H98.3809V12.5Z" fill="black"/>
<path d="M102.381 12.5H106.381V16.5H102.381V12.5Z" fill="black"/>
<path d="M106.381 12.5H110.381V16.5H106.381V12.5Z" fill="black"/>
<path d="M110.381 12.5H114.381V16.5H110.381V12.5Z" fill="white"/>
<path d="M114.381 12.5H118.381V16.5H114.381V12.5Z" fill="black"/>
<path d="M0.380859 16.5H4.38086V20.5H0.380859V16.5Z" fill="black"/>
<path d="M4.38086 16.5H8.38086V20.5H4.38086V16.5Z" fill="white"/>
<path d="M8.38086 16.5H12.3809V20.5H8.38086V16.5Z" fill="black"/>
<path d="M12.3809 16.5H16.3809V20.5H12.3809V16.5Z" fill="black"/>
<path d="M16.3809 16.5H20.3809V20.5H16.3809V16.5Z" fill="black"/>
<path d="M20.3809 16.5H24.3809V20.5H20.3809V16.5Z" fill="white"/>
<path d="M24.3809 16.5H28.3809V20.5H24.3809V16.5Z" fill="black"/>
<path d="M28.3809 16.5H33.3809V20.5H28.3809V16.5Z" fill="white"/>
<path d="M33.3809 16.5H37.3809V20.5H33.3809V16.5Z" fill="black"/>
<path d="M37.3809 16.5H41.3809V20.5H37.3809V16.5Z" fill="black"/>
<path d="M41.3809 16.5H45.3809V20.5H41.3809V16.5Z" fill="white"/>
<path d="M45.3809 16.5H49.3809V20.5H45.3809V16.5Z" fill="white"/>
<path d="M49.3809 16.5H53.3809V20.5H49.3809V16.5Z" fill="white"/>
<path d="M53.3809 16.5H57.3809V20.5H53.3809V16.5Z" fill="black"/>
<path d="M57.3809 16.5H61.3809V20.5H57.3809V16.5Z" fill="black"/>
<path d="M61.3809 16.5H65.3809V20.5H61.3809V16.5Z" fill="white"/>
<path d="M65.3809 16.5H69.3809V20.5H65.3809V16.5Z" fill="white"/>
<path d="M69.3809 16.5H73.3809V20.5H69.3809V16.5Z" fill="black"/>
<path d="M73.3809 16.5H77.3809V20.5H73.3809V16.5Z" fill="black"/>
<path d="M77.3809 16.5H81.3809V20.5H77.3809V16.5Z" fill="black"/>
<path d="M81.3809 16.5H85.3809V20.5H81.3809V16.5Z" fill="black"/>
<path d="M85.3809 16.5H90.3809V20.5H85.3809V16.5Z" fill="white"/>
<path d="M90.3809 16.5H94.3809V20.5H90.3809V16.5Z" fill="black"/>
<path d="M94.3809 16.5H98.3809V20.5H94.3809V16.5Z" fill="white"/>
<path d="M98.3809 16.5H102.381V20.5H98.3809V16.5Z" fill="black"/>
<path d="M102.381 16.5H106.381V20.5H102.381V16.5Z" fill="black"/>
<path d="M106.381 16.5H110.381V20.5H106.381V16.5Z" fill="black"/>
<path d="M110.381 16.5H114.381V20.5H110.381V16.5Z" fill="white"/>
<path d="M114.381 16.5H118.381V20.5H114.381V16.5Z" fill="black"/>
<path d="M0.380859 20.5H4.38086V24.5H0.380859V20.5Z" fill="black"/>
<path d="M4.38086 20.5H8.38086V24.5H4.38086V20.5Z" fill="white"/>
<path d="M8.38086 20.5H12.3809V24.5H8.38086V20.5Z" fill="white"/>
<path d="M12.3809 20.5H16.3809V24.5H12.3809V20.5Z" fill="white"/>
<path d="M16.3809 20.5H20.3809V24.5H16.3809V20.5Z" fill="white"/>
<path d="M20.3809 20.5H24.3809V24.5H20.3809V20.5Z" fill="white"/>
<path d="M24.3809 20.5H28.3809V24.5H24.3809V20.5Z" fill="black"/>
<path d="M28.3809 20.5H33.3809V24.5H28.3809V20.5Z" fill="white"/>
<path d="M33.3809 20.5H37.3809V24.5H33.3809V20.5Z" fill="white"/>
<path d="M37.3809 20.5H41.3809V24.5H37.3809V20.5Z" fill="white"/>
<path d="M41.3809 20.5H45.3809V24.5H41.3809V20.5Z" fill="white"/>
<path d="M45.3809 20.5H49.3809V24.5H45.3809V20.5Z" fill="black"/>
<path d="M49.3809 20.5H53.3809V24.5H49.3809V20.5Z" fill="black"/>
<path d="M53.3809 20.5H57.3809V24.5H53.3809V20.5Z" fill="white"/>
<path d="M57.3809 20.5H61.3809V24.5H57.3809V20.5Z" fill="white"/>
<path d="M61.3809 20.5H65.3809V24.5H61.3809V20.5Z" fill="white"/>
<path d="M65.3809 20.5H69.3809V24.5H65.3809V20.5Z" fill="black"/>
<path d="M69.3809 20.5H73.3809V24.5H69.3809V20.5Z" fill="black"/>
<path d="M73.3809 20.5H77.3809V24.5H73.3809V20.5Z" fill="white"/>
<path d="M77.3809 20.5H81.3809V24.5H77.3809V20.5Z" fill="white"/>
<path d="M81.3809 20.5H85.3809V24.5H81.3809V20.5Z" fill="black"/>
<path d="M85.3809 20.5H90.3809V24.5H85.3809V20.5Z" fill="white"/>
<path d="M90.3809 20.5H94.3809V24.5H90.3809V20.5Z" fill="black"/>
<path d="M94.3809 20.5H98.3809V24.5H94.3809V20.5Z" fill="white"/>
<path d="M98.3809 20.5H102.381V24.5H98.3809V20.5Z" fill="white"/>
<path d="M102.381 20.5H106.381V24.5H102.381V20.5Z" fill="white"/>
<path d="M106.381 20.5H110.381V24.5H106.381V20.5Z" fill="white"/>
<path d="M110.381 20.5H114.381V24.5H110.381V20.5Z" fill="white"/>
<path d="M114.381 20.5H118.381V24.5H114.381V20.5Z" fill="black"/>
<path d="M0.380859 24.5H4.38086V28.5H0.380859V24.5Z" fill="black"/>
<path d="M4.38086 24.5H8.38086V28.5H4.38086V24.5Z" fill="black"/>
<path d="M8.38086 24.5H12.3809V28.5H8.38086V24.5Z" fill="black"/>
<path d="M12.3809 24.5H16.3809V28.5H12.3809V24.5Z" fill="black"/>
<path d="M16.3809 24.5H20.3809V28.5H16.3809V24.5Z" fill="black"/>
<path d="M20.3809 24.5H24.3809V28.5H20.3809V24.5Z" fill="black"/>
<path d="M24.3809 24.5H28.3809V28.5H24.3809V24.5Z" fill="black"/>
<path d="M28.3809 24.5H33.3809V28.5H28.3809V24.5Z" fill="white"/>
<path d="M33.3809 24.5H37.3809V28.5H33.3809V24.5Z" fill="black"/>
<path d="M37.3809 24.5H41.3809V28.5H37.3809V24.5Z" fill="white"/>
<path d="M41.3809 24.5H45.3809V28.5H41.3809V24.5Z" fill="black"/>
<path d="M45.3809 24.5H49.3809V28.5H45.3809V24.5Z" fill="white"/>
<path d="M49.3809 24.5H53.3809V28.5H49.3809V24.5Z" fill="black"/>
<path d="M53.3809 24.5H57.3809V28.5H53.3809V24.5Z" fill="white"/>
<path d="M57.3809 24.5H61.3809V28.5H57.3809V24.5Z" fill="black"/>
<path d="M61.3809 24.5H65.3809V28.5H61.3809V24.5Z" fill="white"/>
<path d="M65.3809 24.5H69.3809V28.5H65.3809V24.5Z" fill="black"/>
<path d="M69.3809 24.5H73.3809V28.5H69.3809V24.5Z" fill="white"/>
<path d="M73.3809 24.5H77.3809V28.5H73.3809V24.5Z" fill="black"/>
<path d="M77.3809 24.5H81.3809V28.5H77.3809V24.5Z" fill="white"/>
<path d="M81.3809 24.5H85.3809V28.5H81.3809V24.5Z" fill="black"/>
<path d="M85.3809 24.5H90.3809V28.5H85.3809V24.5Z" fill="white"/>
<path d="M90.3809 24.5H94.3809V28.5H90.3809V24.5Z" fill="black"/>
<path d="M94.3809 24.5H98.3809V28.5H94.3809V24.5Z" fill="black"/>
<path d="M98.3809 24.5H102.381V28.5H98.3809V24.5Z" fill="black"/>
<path d="M102.381 24.5H106.381V28.5H102.381V24.5Z" fill="black"/>
<path d="M106.381 24.5H110.381V28.5H106.381V24.5Z" fill="black"/>
<path d="M110.381 24.5H114.381V28.5H110.381V24.5Z" fill="black"/>
<path d="M114.381 24.5H118.381V28.5H114.381V24.5Z" fill="black"/>
<path d="M0.380859 28.5H4.38086V33.5H0.380859V28.5Z" fill="white"/>
<path d="M4.38086 28.5H8.38086V33.5H4.38086V28.5Z" fill="white"/>
<path d="M8.38086 28.5H12.3809V33.5H8.38086V28.5Z" fill="white"/>
<path d="M12.3809 28.5H16.3809V33.5H12.3809V28.5Z" fill="white"/>
<path d="M16.3809 28.5H20.3809V33.5H16.3809V28.5Z" fill="white"/>
<path d="M20.3809 28.5H24.3809V33.5H20.3809V28.5Z" fill="white"/>
<path d="M24.3809 28.5H28.3809V33.5H24.3809V28.5Z" fill="white"/>
<path d="M28.3809 28.5H33.3809V33.5H28.3809V28.5Z" fill="white"/>
<path d="M33.3809 28.5H37.3809V33.5H33.3809V28.5Z" fill="white"/>
<path d="M37.3809 28.5H41.3809V33.5H37.3809V28.5Z" fill="white"/>
<path d="M41.3809 28.5H45.3809V33.5H41.3809V28.5Z" fill="black"/>
<path d="M45.3809 28.5H49.3809V33.5H45.3809V28.5Z" fill="black"/>
<path d="M49.3809 28.5H53.3809V33.5H49.3809V28.5Z" fill="white"/>
<path d="M53.3809 28.5H57.3809V33.5H53.3809V28.5Z" fill="white"/>
<path d="M57.3809 28.5H61.3809V33.5H57.3809V28.5Z" fill="black"/>
<path d="M61.3809 28.5H65.3809V33.5H61.3809V28.5Z" fill="white"/>
<path d="M65.3809 28.5H69.3809V33.5H65.3809V28.5Z" fill="white"/>
<path d="M69.3809 28.5H73.3809V33.5H69.3809V28.5Z" fill="white"/>
<path d="M73.3809 28.5H77.3809V33.5H73.3809V28.5Z" fill="white"/>
<path d="M77.3809 28.5H81.3809V33.5H77.3809V28.5Z" fill="black"/>
<path d="M81.3809 28.5H85.3809V33.5H81.3809V28.5Z" fill="white"/>
<path d="M85.3809 28.5H90.3809V33.5H85.3809V28.5Z" fill="white"/>
<path d="M90.3809 28.5H94.3809V33.5H90.3809V28.5Z" fill="white"/>
<path d="M94.3809 28.5H98.3809V33.5H94.3809V28.5Z" fill="white"/>
<path d="M98.3809 28.5H102.381V33.5H98.3809V28.5Z" fill="white"/>
<path d="M102.381 28.5H106.381V33.5H102.381V28.5Z" fill="white"/>
<path d="M106.381 28.5H110.381V33.5H106.381V28.5Z" fill="white"/>
<path d="M110.381 28.5H114.381V33.5H110.381V28.5Z" fill="white"/>
<path d="M114.381 28.5H118.381V33.5H114.381V28.5Z" fill="white"/>
<path d="M0.380859 33.5H4.38086V37.5H0.380859V33.5Z" fill="black"/>
<path d="M4.38086 33.5H8.38086V37.5H4.38086V33.5Z" fill="black"/>
<path d="M8.38086 33.5H12.3809V37.5H8.38086V33.5Z" fill="white"/>
<path d="M12.3809 33.5H16.3809V37.5H12.3809V33.5Z" fill="white"/>
<path d="M16.3809 33.5H20.3809V37.5H16.3809V33.5Z" fill="white"/>
<path d="M20.3809 33.5H24.3809V37.5H20.3809V33.5Z" fill="black"/>
<path d="M24.3809 33.5H28.3809V37.5H24.3809V33.5Z" fill="black"/>
<path d="M28.3809 33.5H33.3809V37.5H28.3809V33.5Z" fill="black"/>
<path d="M33.3809 33.5H37.3809V37.5H33.3809V33.5Z" fill="white"/>
<path d="M37.3809 33.5H41.3809V37.5H37.3809V33.5Z" fill="black"/>
<path d="M41.3809 33.5H45.3809V37.5H41.3809V33.5Z" fill="white"/>
<path d="M45.3809 33.5H49.3809V37.5H45.3809V33.5Z" fill="black"/>
<path d="M49.3809 33.5H53.3809V37.5H49.3809V33.5Z" fill="white"/>
<path d="M53.3809 33.5H57.3809V37.5H53.3809V33.5Z" fill="white"/>
<path d="M57.3809 33.5H61.3809V37.5H57.3809V33.5Z" fill="black"/>
<path d="M61.3809 33.5H65.3809V37.5H61.3809V33.5Z" fill="black"/>
<path d="M65.3809 33.5H69.3809V37.5H65.3809V33.5Z" fill="white"/>
<path d="M69.3809 33.5H73.3809V37.5H69.3809V33.5Z" fill="black"/>
<path d="M73.3809 33.5H77.3809V37.5H73.3809V33.5Z" fill="white"/>
<path d="M77.3809 33.5H81.3809V37.5H77.3809V33.5Z" fill="white"/>
<path d="M81.3809 33.5H85.3809V37.5H81.3809V33.5Z" fill="white"/>
<path d="M85.3809 33.5H90.3809V37.5H85.3809V33.5Z" fill="white"/>
<path d="M90.3809 33.5H94.3809V37.5H90.3809V33.5Z" fill="white"/>
<path d="M94.3809 33.5H98.3809V37.5H94.3809V33.5Z" fill="white"/>
<path d="M98.3809 33.5H102.381V37.5H98.3809V33.5Z" fill="black"/>
<path d="M102.381 33.5H106.381V37.5H102.381V33.5Z" fill="black"/>
<path d="M106.381 33.5H110.381V37.5H106.381V33.5Z" fill="white"/>
<path d="M110.381 33.5H114.381V37.5H110.381V33.5Z" fill="white"/>
<path d="M114.381 33.5H118.381V37.5H114.381V33.5Z" fill="white"/>
<path d="M0.380859 37.5H4.38086V41.5H0.380859V37.5Z" fill="white"/>
<path d="M4.38086 37.5H8.38086V41.5H4.38086V37.5Z" fill="black"/>
<path d="M8.38086 37.5H12.3809V41.5H8.38086V37.5Z" fill="black"/>
<path d="M12.3809 37.5H16.3809V41.5H12.3809V37.5Z" fill="white"/>
<path d="M16.3809 37.5H20.3809V41.5H16.3809V37.5Z" fill="black"/>
<path d="M20.3809 37.5H24.3809V41.5H20.3809V37.5Z" fill="black"/>
<path d="M24.3809 37.5H28.3809V41.5H24.3809V37.5Z" fill="white"/>
<path d="M28.3809 37.5H33.3809V41.5H28.3809V37.5Z" fill="black"/>
<path d="M33.3809 37.5H37.3809V41.5H33.3809V37.5Z" fill="black"/>
<path d="M37.3809 37.5H41.3809V41.5H37.3809V37.5Z" fill="black"/>
<path d="M41.3809 37.5H45.3809V41.5H41.3809V37.5Z" fill="white"/>
<path d="M45.3809 37.5H49.3809V41.5H45.3809V37.5Z" fill="white"/>
<path d="M49.3809 37.5H53.3809V41.5H49.3809V37.5Z" fill="black"/>
<path d="M53.3809 37.5H57.3809V41.5H53.3809V37.5Z" fill="black"/>
<path d="M57.3809 37.5H61.3809V41.5H57.3809V37.5Z" fill="black"/>
<path d="M61.3809 37.5H65.3809V41.5H61.3809V37.5Z" fill="black"/>
<path d="M65.3809 37.5H69.3809V41.5H65.3809V37.5Z" fill="white"/>
<path d="M69.3809 37.5H73.3809V41.5H69.3809V37.5Z" fill="white"/>
<path d="M73.3809 37.5H77.3809V41.5H73.3809V37.5Z" fill="white"/>
<path d="M77.3809 37.5H81.3809V41.5H77.3809V37.5Z" fill="black"/>
<path d="M81.3809 37.5H85.3809V41.5H81.3809V37.5Z" fill="white"/>
<path d="M85.3809 37.5H90.3809V41.5H85.3809V37.5Z" fill="black"/>
<path d="M90.3809 37.5H94.3809V41.5H90.3809V37.5Z" fill="white"/>
<path d="M94.3809 37.5H98.3809V41.5H94.3809V37.5Z" fill="black"/>
<path d="M98.3809 37.5H102.381V41.5H98.3809V37.5Z" fill="black"/>
<path d="M102.381 37.5H106.381V41.5H102.381V37.5Z" fill="white"/>
<path d="M106.381 37.5H110.381V41.5H106.381V37.5Z" fill="black"/>
<path d="M110.381 37.5H114.381V41.5H110.381V37.5Z" fill="black"/>
<path d="M114.381 37.5H118.381V41.5H114.381V37.5Z" fill="white"/>
<path d="M0.380859 41.5H4.38086V45.5H0.380859V41.5Z" fill="black"/>
<path d="M4.38086 41.5H8.38086V45.5H4.38086V41.5Z" fill="black"/>
<path d="M8.38086 41.5H12.3809V45.5H8.38086V41.5Z" fill="white"/>
<path d="M12.3809 41.5H16.3809V45.5H12.3809V41.5Z" fill="black"/>
<path d="M16.3809 41.5H20.3809V45.5H16.3809V41.5Z" fill="white"/>
<path d="M20.3809 41.5H24.3809V45.5H20.3809V41.5Z" fill="white"/>
<path d="M24.3809 41.5H28.3809V45.5H24.3809V41.5Z" fill="black"/>
<path d="M28.3809 41.5H33.3809V45.5H28.3809V41.5Z" fill="white"/>
<path d="M33.3809 41.5H37.3809V45.5H33.3809V41.5Z" fill="black"/>
<path d="M37.3809 41.5H41.3809V45.5H37.3809V41.5Z" fill="white"/>
<path d="M41.3809 41.5H45.3809V45.5H41.3809V41.5Z" fill="black"/>
<path d="M45.3809 41.5H49.3809V45.5H45.3809V41.5Z" fill="white"/>
<path d="M49.3809 41.5H53.3809V45.5H49.3809V41.5Z" fill="white"/>
<path d="M53.3809 41.5H57.3809V45.5H53.3809V41.5Z" fill="black"/>
<path d="M57.3809 41.5H61.3809V45.5H57.3809V41.5Z" fill="black"/>
<path d="M61.3809 41.5H65.3809V45.5H61.3809V41.5Z" fill="black"/>
<path d="M65.3809 41.5H69.3809V45.5H65.3809V41.5Z" fill="black"/>
<path d="M69.3809 41.5H73.3809V45.5H69.3809V41.5Z" fill="black"/>
<path d="M73.3809 41.5H77.3809V45.5H73.3809V41.5Z" fill="black"/>
<path d="M77.3809 41.5H81.3809V45.5H77.3809V41.5Z" fill="white"/>
<path d="M81.3809 41.5H85.3809V45.5H81.3809V41.5Z" fill="white"/>
<path d="M85.3809 41.5H90.3809V45.5H85.3809V41.5Z" fill="black"/>
<path d="M90.3809 41.5H94.3809V45.5H90.3809V41.5Z" fill="black"/>
<path d="M94.3809 41.5H98.3809V45.5H94.3809V41.5Z" fill="white"/>
<path d="M98.3809 41.5H102.381V45.5H98.3809V41.5Z" fill="white"/>
<path d="M102.381 41.5H106.381V45.5H102.381V41.5Z" fill="white"/>
<path d="M106.381 41.5H110.381V45.5H106.381V41.5Z" fill="white"/>
<path d="M110.381 41.5H114.381V45.5H110.381V41.5Z" fill="white"/>
<path d="M114.381 41.5H118.381V45.5H114.381V41.5Z" fill="white"/>
<path d="M0.380859 45.5H4.38086V49.5H0.380859V45.5Z" fill="black"/>
<path d="M4.38086 45.5H8.38086V49.5H4.38086V45.5Z" fill="black"/>
<path d="M8.38086 45.5H12.3809V49.5H8.38086V45.5Z" fill="black"/>
<path d="M12.3809 45.5H16.3809V49.5H12.3809V45.5Z" fill="black"/>
<path d="M16.3809 45.5H20.3809V49.5H16.3809V45.5Z" fill="black"/>
<path d="M20.3809 45.5H24.3809V49.5H20.3809V45.5Z" fill="white"/>
<path d="M24.3809 45.5H28.3809V49.5H24.3809V45.5Z" fill="white"/>
<path d="M28.3809 45.5H33.3809V49.5H28.3809V45.5Z" fill="white"/>
<path d="M33.3809 45.5H37.3809V49.5H33.3809V45.5Z" fill="white"/>
<path d="M37.3809 45.5H41.3809V49.5H37.3809V45.5Z" fill="black"/>
<path d="M41.3809 45.5H45.3809V49.5H41.3809V45.5Z" fill="white"/>
<path d="M45.3809 45.5H49.3809V49.5H45.3809V45.5Z" fill="white"/>
<path d="M49.3809 45.5H53.3809V49.5H49.3809V45.5Z" fill="black"/>
<path d="M53.3809 45.5H57.3809V49.5H53.3809V45.5Z" fill="white"/>
<path d="M57.3809 45.5H61.3809V49.5H57.3809V45.5Z" fill="black"/>
<path d="M61.3809 45.5H65.3809V49.5H61.3809V45.5Z" fill="white"/>
<path d="M65.3809 45.5H69.3809V49.5H65.3809V45.5Z" fill="white"/>
<path d="M69.3809 45.5H73.3809V49.5H69.3809V45.5Z" fill="white"/>
<path d="M73.3809 45.5H77.3809V49.5H73.3809V45.5Z" fill="white"/>
<path d="M77.3809 45.5H81.3809V49.5H77.3809V45.5Z" fill="black"/>
<path d="M81.3809 45.5H85.3809V49.5H81.3809V45.5Z" fill="black"/>
<path d="M85.3809 45.5H90.3809V49.5H85.3809V45.5Z" fill="black"/>
<path d="M90.3809 45.5H94.3809V49.5H90.3809V45.5Z" fill="white"/>
<path d="M94.3809 45.5H98.3809V49.5H94.3809V45.5Z" fill="black"/>
<path d="M98.3809 45.5H102.381V49.5H98.3809V45.5Z" fill="white"/>
<path d="M102.381 45.5H106.381V49.5H102.381V45.5Z" fill="black"/>
<path d="M106.381 45.5H110.381V49.5H106.381V45.5Z" fill="white"/>
<path d="M110.381 45.5H114.381V49.5H110.381V45.5Z" fill="white"/>
<path d="M114.381 45.5H118.381V49.5H114.381V45.5Z" fill="white"/>
<path d="M0.380859 49.5H4.38086V53.5H0.380859V49.5Z" fill="white"/>
<path d="M4.38086 49.5H8.38086V53.5H4.38086V49.5Z" fill="white"/>
<path d="M8.38086 49.5H12.3809V53.5H8.38086V49.5Z" fill="white"/>
<path d="M12.3809 49.5H16.3809V53.5H12.3809V49.5Z" fill="black"/>
<path d="M16.3809 49.5H20.3809V53.5H16.3809V49.5Z" fill="black"/>
<path d="M20.3809 49.5H24.3809V53.5H20.3809V49.5Z" fill="black"/>
<path d="M24.3809 49.5H28.3809V53.5H24.3809V49.5Z" fill="black"/>
<path d="M28.3809 49.5H33.3809V53.5H28.3809V49.5Z" fill="black"/>
<path d="M33.3809 49.5H37.3809V53.5H33.3809V49.5Z" fill="black"/>
<path d="M37.3809 49.5H41.3809V53.5H37.3809V49.5Z" fill="black"/>
<path d="M41.3809 49.5H45.3809V53.5H41.3809V49.5Z" fill="white"/>
<path d="M45.3809 49.5H49.3809V53.5H45.3809V49.5Z" fill="black"/>
<path d="M49.3809 49.5H53.3809V53.5H49.3809V49.5Z" fill="black"/>
<path d="M53.3809 49.5H57.3809V53.5H53.3809V49.5Z" fill="white"/>
<path d="M57.3809 49.5H61.3809V53.5H57.3809V49.5Z" fill="black"/>
<path d="M61.3809 49.5H65.3809V53.5H61.3809V49.5Z" fill="black"/>
<path d="M65.3809 49.5H69.3809V53.5H65.3809V49.5Z" fill="black"/>
<path d="M69.3809 49.5H73.3809V53.5H69.3809V49.5Z" fill="white"/>
<path d="M73.3809 49.5H77.3809V53.5H73.3809V49.5Z" fill="white"/>
<path d="M77.3809 49.5H81.3809V53.5H77.3809V49.5Z" fill="white"/>
<path d="M81.3809 49.5H85.3809V53.5H81.3809V49.5Z" fill="black"/>
<path d="M85.3809 49.5H90.3809V53.5H85.3809V49.5Z" fill="white"/>
<path d="M90.3809 49.5H94.3809V53.5H90.3809V49.5Z" fill="black"/>
<path d="M94.3809 49.5H98.3809V53.5H94.3809V49.5Z" fill="black"/>
<path d="M98.3809 49.5H102.381V53.5H98.3809V49.5Z" fill="white"/>
<path d="M102.381 49.5H106.381V53.5H102.381V49.5Z" fill="white"/>
<path d="M106.381 49.5H110.381V53.5H106.381V49.5Z" fill="white"/>
<path d="M110.381 49.5H114.381V53.5H110.381V49.5Z" fill="white"/>
<path d="M114.381 49.5H118.381V53.5H114.381V49.5Z" fill="black"/>
<path d="M0.380859 53.5H4.38086V57.5H0.380859V53.5Z" fill="black"/>
<path d="M4.38086 53.5H8.38086V57.5H4.38086V53.5Z" fill="white"/>
<path d="M8.38086 53.5H12.3809V57.5H8.38086V53.5Z" fill="white"/>
<path d="M12.3809 53.5H16.3809V57.5H12.3809V53.5Z" fill="white"/>
<path d="M16.3809 53.5H20.3809V57.5H16.3809V53.5Z" fill="black"/>
<path d="M20.3809 53.5H24.3809V57.5H20.3809V53.5Z" fill="black"/>
<path d="M24.3809 53.5H28.3809V57.5H24.3809V53.5Z" fill="white"/>
<path d="M28.3809 53.5H33.3809V57.5H28.3809V53.5Z" fill="white"/>
<path d="M33.3809 53.5H37.3809V57.5H33.3809V53.5Z" fill="white"/>
<path d="M37.3809 53.5H41.3809V57.5H37.3809V53.5Z" fill="black"/>
<path d="M41.3809 53.5H45.3809V57.5H41.3809V53.5Z" fill="white"/>
<path d="M45.3809 53.5H49.3809V57.5H45.3809V53.5Z" fill="white"/>
<path d="M49.3809 53.5H53.3809V57.5H49.3809V53.5Z" fill="white"/>
<path d="M53.3809 53.5H57.3809V57.5H53.3809V53.5Z" fill="black"/>
<path d="M57.3809 53.5H61.3809V57.5H57.3809V53.5Z" fill="black"/>
<path d="M61.3809 53.5H65.3809V57.5H61.3809V53.5Z" fill="black"/>
<path d="M65.3809 53.5H69.3809V57.5H65.3809V53.5Z" fill="black"/>
<path d="M69.3809 53.5H73.3809V57.5H69.3809V53.5Z" fill="black"/>
<path d="M73.3809 53.5H77.3809V57.5H73.3809V53.5Z" fill="black"/>
<path d="M77.3809 53.5H81.3809V57.5H77.3809V53.5Z" fill="black"/>
<path d="M81.3809 53.5H85.3809V57.5H81.3809V53.5Z" fill="white"/>
<path d="M85.3809 53.5H90.3809V57.5H85.3809V53.5Z" fill="white"/>
<path d="M90.3809 53.5H94.3809V57.5H90.3809V53.5Z" fill="black"/>
<path d="M94.3809 53.5H98.3809V57.5H94.3809V53.5Z" fill="white"/>
<path d="M98.3809 53.5H102.381V57.5H98.3809V53.5Z" fill="black"/>
<path d="M102.381 53.5H106.381V57.5H102.381V53.5Z" fill="white"/>
<path d="M106.381 53.5H110.381V57.5H106.381V53.5Z" fill="white"/>
<path d="M110.381 53.5H114.381V57.5H110.381V53.5Z" fill="black"/>
<path d="M114.381 53.5H118.381V57.5H114.381V53.5Z" fill="black"/>
<path d="M0.380859 57.5H4.38086V61.5H0.380859V57.5Z" fill="white"/>
<path d="M4.38086 57.5H8.38086V61.5H4.38086V57.5Z" fill="black"/>
<path d="M8.38086 57.5H12.3809V61.5H8.38086V57.5Z" fill="black"/>
<path d="M12.3809 57.5H16.3809V61.5H12.3809V57.5Z" fill="black"/>
<path d="M16.3809 57.5H20.3809V61.5H16.3809V57.5Z" fill="white"/>
<path d="M20.3809 57.5H24.3809V61.5H20.3809V57.5Z" fill="white"/>
<path d="M24.3809 57.5H28.3809V61.5H24.3809V57.5Z" fill="black"/>
<path d="M28.3809 57.5H33.3809V61.5H28.3809V57.5Z" fill="black"/>
<path d="M33.3809 57.5H37.3809V61.5H33.3809V57.5Z" fill="black"/>
<path d="M37.3809 57.5H41.3809V61.5H37.3809V57.5Z" fill="black"/>
<path d="M41.3809 57.5H45.3809V61.5H41.3809V57.5Z" fill="white"/>
<path d="M45.3809 57.5H49.3809V61.5H45.3809V57.5Z" fill="black"/>
<path d="M49.3809 57.5H53.3809V61.5H49.3809V57.5Z" fill="black"/>
<path d="M53.3809 57.5H57.3809V61.5H53.3809V57.5Z" fill="white"/>
<path d="M57.3809 57.5H61.3809V61.5H57.3809V57.5Z" fill="white"/>
<path d="M61.3809 57.5H65.3809V61.5H61.3809V57.5Z" fill="black"/>
<path d="M65.3809 57.5H69.3809V61.5H65.3809V57.5Z" fill="white"/>
<path d="M69.3809 57.5H73.3809V61.5H69.3809V57.5Z" fill="white"/>
<path d="M73.3809 57.5H77.3809V61.5H73.3809V57.5Z" fill="black"/>
<path d="M77.3809 57.5H81.3809V61.5H77.3809V57.5Z" fill="white"/>
<path d="M81.3809 57.5H85.3809V61.5H81.3809V57.5Z" fill="black"/>
<path d="M85.3809 57.5H90.3809V61.5H85.3809V57.5Z" fill="white"/>
<path d="M90.3809 57.5H94.3809V61.5H90.3809V57.5Z" fill="black"/>
<path d="M94.3809 57.5H98.3809V61.5H94.3809V57.5Z" fill="black"/>
<path d="M98.3809 57.5H102.381V61.5H98.3809V57.5Z" fill="white"/>
<path d="M102.381 57.5H106.381V61.5H102.381V57.5Z" fill="black"/>
<path d="M106.381 57.5H110.381V61.5H106.381V57.5Z" fill="black"/>
<path d="M110.381 57.5H114.381V61.5H110.381V57.5Z" fill="white"/>
<path d="M114.381 57.5H118.381V61.5H114.381V57.5Z" fill="white"/>
<path d="M0.380859 61.5H4.38086V65.5H0.380859V61.5Z" fill="white"/>
<path d="M4.38086 61.5H8.38086V65.5H4.38086V61.5Z" fill="black"/>
<path d="M8.38086 61.5H12.3809V65.5H8.38086V61.5Z" fill="white"/>
<path d="M12.3809 61.5H16.3809V65.5H12.3809V61.5Z" fill="white"/>
<path d="M16.3809 61.5H20.3809V65.5H16.3809V61.5Z" fill="black"/>
<path d="M20.3809 61.5H24.3809V65.5H20.3809V61.5Z" fill="black"/>
<path d="M24.3809 61.5H28.3809V65.5H24.3809V61.5Z" fill="white"/>
<path d="M28.3809 61.5H33.3809V65.5H28.3809V61.5Z" fill="black"/>
<path d="M33.3809 61.5H37.3809V65.5H33.3809V61.5Z" fill="white"/>
<path d="M37.3809 61.5H41.3809V65.5H37.3809V61.5Z" fill="black"/>
<path d="M41.3809 61.5H45.3809V65.5H41.3809V61.5Z" fill="black"/>
<path d="M45.3809 61.5H49.3809V65.5H45.3809V61.5Z" fill="black"/>
<path d="M49.3809 61.5H53.3809V65.5H49.3809V61.5Z" fill="white"/>
<path d="M53.3809 61.5H57.3809V65.5H53.3809V61.5Z" fill="white"/>
<path d="M57.3809 61.5H61.3809V65.5H57.3809V61.5Z" fill="black"/>
<path d="M61.3809 61.5H65.3809V65.5H61.3809V61.5Z" fill="black"/>
<path d="M65.3809 61.5H69.3809V65.5H65.3809V61.5Z" fill="black"/>
<path d="M69.3809 61.5H73.3809V65.5H69.3809V61.5Z" fill="white"/>
<path d="M73.3809 61.5H77.3809V65.5H73.3809V61.5Z" fill="white"/>
<path d="M77.3809 61.5H81.3809V65.5H77.3809V61.5Z" fill="black"/>
<path d="M81.3809 61.5H85.3809V65.5H81.3809V61.5Z" fill="white"/>
<path d="M85.3809 61.5H90.3809V65.5H85.3809V61.5Z" fill="black"/>
<path d="M90.3809 61.5H94.3809V65.5H90.3809V61.5Z" fill="white"/>
<path d="M94.3809 61.5H98.3809V65.5H94.3809V61.5Z" fill="black"/>
<path d="M98.3809 61.5H102.381V65.5H98.3809V61.5Z" fill="black"/>
<path d="M102.381 61.5H106.381V65.5H102.381V61.5Z" fill="white"/>
<path d="M106.381 61.5H110.381V65.5H106.381V61.5Z" fill="black"/>
<path d="M110.381 61.5H114.381V65.5H110.381V61.5Z" fill="white"/>
<path d="M114.381 61.5H118.381V65.5H114.381V61.5Z" fill="black"/>
<path d="M0.380859 65.5H4.38086V69.5H0.380859V65.5Z" fill="white"/>
<path d="M4.38086 65.5H8.38086V69.5H4.38086V65.5Z" fill="white"/>
<path d="M8.38086 65.5H12.3809V69.5H8.38086V65.5Z" fill="black"/>
<path d="M12.3809 65.5H16.3809V69.5H12.3809V65.5Z" fill="white"/>
<path d="M16.3809 65.5H20.3809V69.5H16.3809V65.5Z" fill="white"/>
<path d="M20.3809 65.5H24.3809V69.5H20.3809V65.5Z" fill="white"/>
<path d="M24.3809 65.5H28.3809V69.5H24.3809V65.5Z" fill="black"/>
<path d="M28.3809 65.5H33.3809V69.5H28.3809V65.5Z" fill="white"/>
<path d="M33.3809 65.5H37.3809V69.5H33.3809V65.5Z" fill="black"/>
<path d="M37.3809 65.5H41.3809V69.5H37.3809V65.5Z" fill="white"/>
<path d="M41.3809 65.5H45.3809V69.5H41.3809V65.5Z" fill="white"/>
<path d="M45.3809 65.5H49.3809V69.5H45.3809V65.5Z" fill="black"/>
<path d="M49.3809 65.5H53.3809V69.5H49.3809V65.5Z" fill="white"/>
<path d="M53.3809 65.5H57.3809V69.5H53.3809V65.5Z" fill="white"/>
<path d="M57.3809 65.5H61.3809V69.5H57.3809V65.5Z" fill="white"/>
<path d="M61.3809 65.5H65.3809V69.5H61.3809V65.5Z" fill="white"/>
<path d="M65.3809 65.5H69.3809V69.5H65.3809V65.5Z" fill="white"/>
<path d="M69.3809 65.5H73.3809V69.5H69.3809V65.5Z" fill="black"/>
<path d="M73.3809 65.5H77.3809V69.5H73.3809V65.5Z" fill="white"/>
<path d="M77.3809 65.5H81.3809V69.5H77.3809V65.5Z" fill="white"/>
<path d="M81.3809 65.5H85.3809V69.5H81.3809V65.5Z" fill="black"/>
<path d="M85.3809 65.5H90.3809V69.5H85.3809V65.5Z" fill="white"/>
<path d="M90.3809 65.5H94.3809V69.5H90.3809V65.5Z" fill="white"/>
<path d="M94.3809 65.5H98.3809V69.5H94.3809V65.5Z" fill="black"/>
<path d="M98.3809 65.5H102.381V69.5H98.3809V65.5Z" fill="white"/>
<path d="M102.381 65.5H106.381V69.5H102.381V65.5Z" fill="black"/>
<path d="M106.381 65.5H110.381V69.5H106.381V65.5Z" fill="black"/>
<path d="M110.381 65.5H114.381V69.5H110.381V65.5Z" fill="white"/>
<path d="M114.381 65.5H118.381V69.5H114.381V65.5Z" fill="white"/>
<path d="M0.380859 69.5H4.38086V73.5H0.380859V69.5Z" fill="black"/>
<path d="M4.38086 69.5H8.38086V73.5H4.38086V69.5Z" fill="white"/>
<path d="M8.38086 69.5H12.3809V73.5H8.38086V69.5Z" fill="white"/>
<path d="M12.3809 69.5H16.3809V73.5H12.3809V69.5Z" fill="black"/>
<path d="M16.3809 69.5H20.3809V73.5H16.3809V69.5Z" fill="white"/>
<path d="M20.3809 69.5H24.3809V73.5H20.3809V69.5Z" fill="white"/>
<path d="M24.3809 69.5H28.3809V73.5H24.3809V69.5Z" fill="white"/>
<path d="M28.3809 69.5H33.3809V73.5H28.3809V69.5Z" fill="white"/>
<path d="M33.3809 69.5H37.3809V73.5H33.3809V69.5Z" fill="black"/>
<path d="M37.3809 69.5H41.3809V73.5H37.3809V69.5Z" fill="black"/>
<path d="M41.3809 69.5H45.3809V73.5H41.3809V69.5Z" fill="white"/>
<path d="M45.3809 69.5H49.3809V73.5H45.3809V69.5Z" fill="white"/>
<path d="M49.3809 69.5H53.3809V73.5H49.3809V69.5Z" fill="black"/>
<path d="M53.3809 69.5H57.3809V73.5H53.3809V69.5Z" fill="black"/>
<path d="M57.3809 69.5H61.3809V73.5H57.3809V69.5Z" fill="white"/>
<path d="M61.3809 69.5H65.3809V73.5H61.3809V69.5Z" fill="white"/>
<path d="M65.3809 69.5H69.3809V73.5H65.3809V69.5Z" fill="black"/>
<path d="M69.3809 69.5H73.3809V73.5H69.3809V69.5Z" fill="white"/>
<path d="M73.3809 69.5H77.3809V73.5H73.3809V69.5Z" fill="black"/>
<path d="M77.3809 69.5H81.3809V73.5H77.3809V69.5Z" fill="black"/>
<path d="M81.3809 69.5H85.3809V73.5H81.3809V69.5Z" fill="white"/>
<path d="M85.3809 69.5H90.3809V73.5H85.3809V69.5Z" fill="white"/>
<path d="M90.3809 69.5H94.3809V73.5H90.3809V69.5Z" fill="black"/>
<path d="M94.3809 69.5H98.3809V73.5H94.3809V69.5Z" fill="black"/>
<path d="M98.3809 69.5H102.381V73.5H98.3809V69.5Z" fill="black"/>
<path d="M102.381 69.5H106.381V73.5H102.381V69.5Z" fill="white"/>
<path d="M106.381 69.5H110.381V73.5H106.381V69.5Z" fill="black"/>
<path d="M110.381 69.5H114.381V73.5H110.381V69.5Z" fill="black"/>
<path d="M114.381 69.5H118.381V73.5H114.381V69.5Z" fill="black"/>
<path d="M0.380859 73.5H4.38086V77.5H0.380859V73.5Z" fill="black"/>
<path d="M4.38086 73.5H8.38086V77.5H4.38086V73.5Z" fill="black"/>
<path d="M8.38086 73.5H12.3809V77.5H8.38086V73.5Z" fill="black"/>
<path d="M12.3809 73.5H16.3809V77.5H12.3809V73.5Z" fill="white"/>
<path d="M16.3809 73.5H20.3809V77.5H16.3809V73.5Z" fill="black"/>
<path d="M20.3809 73.5H24.3809V77.5H20.3809V73.5Z" fill="black"/>
<path d="M24.3809 73.5H28.3809V77.5H24.3809V73.5Z" fill="black"/>
<path d="M28.3809 73.5H33.3809V77.5H28.3809V73.5Z" fill="black"/>
<path d="M33.3809 73.5H37.3809V77.5H33.3809V73.5Z" fill="white"/>
<path d="M37.3809 73.5H41.3809V77.5H37.3809V73.5Z" fill="white"/>
<path d="M41.3809 73.5H45.3809V77.5H41.3809V73.5Z" fill="black"/>
<path d="M45.3809 73.5H49.3809V77.5H45.3809V73.5Z" fill="black"/>
<path d="M49.3809 73.5H53.3809V77.5H49.3809V73.5Z" fill="white"/>
<path d="M53.3809 73.5H57.3809V77.5H53.3809V73.5Z" fill="white"/>
<path d="M57.3809 73.5H61.3809V77.5H57.3809V73.5Z" fill="white"/>
<path d="M61.3809 73.5H65.3809V77.5H61.3809V73.5Z" fill="black"/>
<path d="M65.3809 73.5H69.3809V77.5H65.3809V73.5Z" fill="black"/>
<path d="M69.3809 73.5H73.3809V77.5H69.3809V73.5Z" fill="white"/>
<path d="M73.3809 73.5H77.3809V77.5H73.3809V73.5Z" fill="white"/>
<path d="M77.3809 73.5H81.3809V77.5H77.3809V73.5Z" fill="black"/>
<path d="M81.3809 73.5H85.3809V77.5H81.3809V73.5Z" fill="black"/>
<path d="M85.3809 73.5H90.3809V77.5H85.3809V73.5Z" fill="white"/>
<path d="M90.3809 73.5H94.3809V77.5H90.3809V73.5Z" fill="white"/>
<path d="M94.3809 73.5H98.3809V77.5H94.3809V73.5Z" fill="white"/>
<path d="M98.3809 73.5H102.381V77.5H98.3809V73.5Z" fill="white"/>
<path d="M102.381 73.5H106.381V77.5H102.381V73.5Z" fill="black"/>
<path d="M106.381 73.5H110.381V77.5H106.381V73.5Z" fill="white"/>
<path d="M110.381 73.5H114.381V77.5H110.381V73.5Z" fill="white"/>
<path d="M114.381 73.5H118.381V77.5H114.381V73.5Z" fill="black"/>
<path d="M0.380859 77.5H4.38086V81.5H0.380859V77.5Z" fill="black"/>
<path d="M4.38086 77.5H8.38086V81.5H4.38086V77.5Z" fill="white"/>
<path d="M8.38086 77.5H12.3809V81.5H8.38086V77.5Z" fill="black"/>
<path d="M12.3809 77.5H16.3809V81.5H12.3809V77.5Z" fill="white"/>
<path d="M16.3809 77.5H20.3809V81.5H16.3809V77.5Z" fill="black"/>
<path d="M20.3809 77.5H24.3809V81.5H20.3809V77.5Z" fill="black"/>
<path d="M24.3809 77.5H28.3809V81.5H24.3809V77.5Z" fill="white"/>
<path d="M28.3809 77.5H33.3809V81.5H28.3809V77.5Z" fill="black"/>
<path d="M33.3809 77.5H37.3809V81.5H33.3809V77.5Z" fill="black"/>
<path d="M37.3809 77.5H41.3809V81.5H37.3809V77.5Z" fill="black"/>
<path d="M41.3809 77.5H45.3809V81.5H41.3809V77.5Z" fill="white"/>
<path d="M45.3809 77.5H49.3809V81.5H45.3809V77.5Z" fill="white"/>
<path d="M49.3809 77.5H53.3809V81.5H49.3809V77.5Z" fill="black"/>
<path d="M53.3809 77.5H57.3809V81.5H53.3809V77.5Z" fill="black"/>
<path d="M57.3809 77.5H61.3809V81.5H57.3809V77.5Z" fill="white"/>
<path d="M61.3809 77.5H65.3809V81.5H61.3809V77.5Z" fill="white"/>
<path d="M65.3809 77.5H69.3809V81.5H65.3809V77.5Z" fill="white"/>
<path d="M69.3809 77.5H73.3809V81.5H69.3809V77.5Z" fill="white"/>
<path d="M73.3809 77.5H77.3809V81.5H73.3809V77.5Z" fill="white"/>
<path d="M77.3809 77.5H81.3809V81.5H77.3809V77.5Z" fill="white"/>
<path d="M81.3809 77.5H85.3809V81.5H81.3809V77.5Z" fill="black"/>
<path d="M85.3809 77.5H90.3809V81.5H85.3809V77.5Z" fill="white"/>
<path d="M90.3809 77.5H94.3809V81.5H90.3809V77.5Z" fill="white"/>
<path d="M94.3809 77.5H98.3809V81.5H94.3809V77.5Z" fill="black"/>
<path d="M98.3809 77.5H102.381V81.5H98.3809V77.5Z" fill="black"/>
<path d="M102.381 77.5H106.381V81.5H102.381V77.5Z" fill="white"/>
<path d="M106.381 77.5H110.381V81.5H106.381V77.5Z" fill="white"/>
<path d="M110.381 77.5H114.381V81.5H110.381V77.5Z" fill="white"/>
<path d="M114.381 77.5H118.381V81.5H114.381V77.5Z" fill="white"/>
<path d="M0.380859 81.5H4.38086V85.5H0.380859V81.5Z" fill="black"/>
<path d="M4.38086 81.5H8.38086V85.5H4.38086V81.5Z" fill="white"/>
<path d="M8.38086 81.5H12.3809V85.5H8.38086V81.5Z" fill="white"/>
<path d="M12.3809 81.5H16.3809V85.5H12.3809V81.5Z" fill="black"/>
<path d="M16.3809 81.5H20.3809V85.5H16.3809V81.5Z" fill="black"/>
<path d="M20.3809 81.5H24.3809V85.5H20.3809V81.5Z" fill="white"/>
<path d="M24.3809 81.5H28.3809V85.5H24.3809V81.5Z" fill="black"/>
<path d="M28.3809 81.5H33.3809V85.5H28.3809V81.5Z" fill="white"/>
<path d="M33.3809 81.5H37.3809V85.5H33.3809V81.5Z" fill="black"/>
<path d="M37.3809 81.5H41.3809V85.5H37.3809V81.5Z" fill="white"/>
<path d="M41.3809 81.5H45.3809V85.5H41.3809V81.5Z" fill="white"/>
<path d="M45.3809 81.5H49.3809V85.5H45.3809V81.5Z" fill="white"/>
<path d="M49.3809 81.5H53.3809V85.5H49.3809V81.5Z" fill="black"/>
<path d="M53.3809 81.5H57.3809V85.5H53.3809V81.5Z" fill="white"/>
<path d="M57.3809 81.5H61.3809V85.5H57.3809V81.5Z" fill="black"/>
<path d="M61.3809 81.5H65.3809V85.5H61.3809V81.5Z" fill="black"/>
<path d="M65.3809 81.5H69.3809V85.5H65.3809V81.5Z" fill="black"/>
<path d="M69.3809 81.5H73.3809V85.5H69.3809V81.5Z" fill="black"/>
<path d="M73.3809 81.5H77.3809V85.5H73.3809V81.5Z" fill="white"/>
<path d="M77.3809 81.5H81.3809V85.5H77.3809V81.5Z" fill="white"/>
<path d="M81.3809 81.5H85.3809V85.5H81.3809V81.5Z" fill="black"/>
<path d="M85.3809 81.5H90.3809V85.5H85.3809V81.5Z" fill="black"/>
<path d="M90.3809 81.5H94.3809V85.5H90.3809V81.5Z" fill="black"/>
<path d="M94.3809 81.5H98.3809V85.5H94.3809V81.5Z" fill="black"/>
<path d="M98.3809 81.5H102.381V85.5H98.3809V81.5Z" fill="black"/>
<path d="M102.381 81.5H106.381V85.5H102.381V81.5Z" fill="white"/>
<path d="M106.381 81.5H110.381V85.5H106.381V81.5Z" fill="black"/>
<path d="M110.381 81.5H114.381V85.5H110.381V81.5Z" fill="black"/>
<path d="M114.381 81.5H118.381V85.5H114.381V81.5Z" fill="black"/>
<path d="M0.380859 85.5H4.38086V90.5H0.380859V85.5Z" fill="white"/>
<path d="M4.38086 85.5H8.38086V90.5H4.38086V85.5Z" fill="white"/>
<path d="M8.38086 85.5H12.3809V90.5H8.38086V85.5Z" fill="white"/>
<path d="M12.3809 85.5H16.3809V90.5H12.3809V85.5Z" fill="white"/>
<path d="M16.3809 85.5H20.3809V90.5H16.3809V85.5Z" fill="white"/>
<path d="M20.3809 85.5H24.3809V90.5H20.3809V85.5Z" fill="white"/>
<path d="M24.3809 85.5H28.3809V90.5H24.3809V85.5Z" fill="white"/>
<path d="M28.3809 85.5H33.3809V90.5H28.3809V85.5Z" fill="white"/>
<path d="M33.3809 85.5H37.3809V90.5H33.3809V85.5Z" fill="black"/>
<path d="M37.3809 85.5H41.3809V90.5H37.3809V85.5Z" fill="white"/>
<path d="M41.3809 85.5H45.3809V90.5H41.3809V85.5Z" fill="black"/>
<path d="M45.3809 85.5H49.3809V90.5H45.3809V85.5Z" fill="white"/>
<path d="M49.3809 85.5H53.3809V90.5H49.3809V85.5Z" fill="white"/>
<path d="M53.3809 85.5H57.3809V90.5H53.3809V85.5Z" fill="white"/>
<path d="M57.3809 85.5H61.3809V90.5H57.3809V85.5Z" fill="black"/>
<path d="M61.3809 85.5H65.3809V90.5H61.3809V85.5Z" fill="black"/>
<path d="M65.3809 85.5H69.3809V90.5H65.3809V85.5Z" fill="black"/>
<path d="M69.3809 85.5H73.3809V90.5H69.3809V85.5Z" fill="black"/>
<path d="M73.3809 85.5H77.3809V90.5H73.3809V85.5Z" fill="black"/>
<path d="M77.3809 85.5H81.3809V90.5H77.3809V85.5Z" fill="black"/>
<path d="M81.3809 85.5H85.3809V90.5H81.3809V85.5Z" fill="black"/>
<path d="M85.3809 85.5H90.3809V90.5H85.3809V85.5Z" fill="white"/>
<path d="M90.3809 85.5H94.3809V90.5H90.3809V85.5Z" fill="white"/>
<path d="M94.3809 85.5H98.3809V90.5H94.3809V85.5Z" fill="white"/>
<path d="M98.3809 85.5H102.381V90.5H98.3809V85.5Z" fill="black"/>
<path d="M102.381 85.5H106.381V90.5H102.381V85.5Z" fill="black"/>
<path d="M106.381 85.5H110.381V90.5H106.381V85.5Z" fill="white"/>
<path d="M110.381 85.5H114.381V90.5H110.381V85.5Z" fill="white"/>
<path d="M114.381 85.5H118.381V90.5H114.381V85.5Z" fill="white"/>
<path d="M0.380859 90.5H4.38086V94.5H0.380859V90.5Z" fill="black"/>
<path d="M4.38086 90.5H8.38086V94.5H4.38086V90.5Z" fill="black"/>
<path d="M8.38086 90.5H12.3809V94.5H8.38086V90.5Z" fill="black"/>
<path d="M12.3809 90.5H16.3809V94.5H12.3809V90.5Z" fill="black"/>
<path d="M16.3809 90.5H20.3809V94.5H16.3809V90.5Z" fill="black"/>
<path d="M20.3809 90.5H24.3809V94.5H20.3809V90.5Z" fill="black"/>
<path d="M24.3809 90.5H28.3809V94.5H24.3809V90.5Z" fill="black"/>
<path d="M28.3809 90.5H33.3809V94.5H28.3809V90.5Z" fill="white"/>
<path d="M33.3809 90.5H37.3809V94.5H33.3809V90.5Z" fill="black"/>
<path d="M37.3809 90.5H41.3809V94.5H37.3809V90.5Z" fill="black"/>
<path d="M41.3809 90.5H45.3809V94.5H41.3809V90.5Z" fill="white"/>
<path d="M45.3809 90.5H49.3809V94.5H45.3809V90.5Z" fill="black"/>
<path d="M49.3809 90.5H53.3809V94.5H49.3809V90.5Z" fill="black"/>
<path d="M53.3809 90.5H57.3809V94.5H53.3809V90.5Z" fill="white"/>
<path d="M57.3809 90.5H61.3809V94.5H57.3809V90.5Z" fill="white"/>
<path d="M61.3809 90.5H65.3809V94.5H61.3809V90.5Z" fill="black"/>
<path d="M65.3809 90.5H69.3809V94.5H65.3809V90.5Z" fill="black"/>
<path d="M69.3809 90.5H73.3809V94.5H69.3809V90.5Z" fill="black"/>
<path d="M73.3809 90.5H77.3809V94.5H73.3809V90.5Z" fill="white"/>
<path d="M77.3809 90.5H81.3809V94.5H77.3809V90.5Z" fill="black"/>
<path d="M81.3809 90.5H85.3809V94.5H81.3809V90.5Z" fill="black"/>
<path d="M85.3809 90.5H90.3809V94.5H85.3809V90.5Z" fill="white"/>
<path d="M90.3809 90.5H94.3809V94.5H90.3809V90.5Z" fill="black"/>
<path d="M94.3809 90.5H98.3809V94.5H94.3809V90.5Z" fill="white"/>
<path d="M98.3809 90.5H102.381V94.5H98.3809V90.5Z" fill="black"/>
<path d="M102.381 90.5H106.381V94.5H102.381V90.5Z" fill="black"/>
<path d="M106.381 90.5H110.381V94.5H106.381V90.5Z" fill="black"/>
<path d="M110.381 90.5H114.381V94.5H110.381V90.5Z" fill="white"/>
<path d="M114.381 90.5H118.381V94.5H114.381V90.5Z" fill="white"/>
<path d="M0.380859 94.5H4.38086V98.5H0.380859V94.5Z" fill="black"/>
<path d="M4.38086 94.5H8.38086V98.5H4.38086V94.5Z" fill="white"/>
<path d="M8.38086 94.5H12.3809V98.5H8.38086V94.5Z" fill="white"/>
<path d="M12.3809 94.5H16.3809V98.5H12.3809V94.5Z" fill="white"/>
<path d="M16.3809 94.5H20.3809V98.5H16.3809V94.5Z" fill="white"/>
<path d="M20.3809 94.5H24.3809V98.5H20.3809V94.5Z" fill="white"/>
<path d="M24.3809 94.5H28.3809V98.5H24.3809V94.5Z" fill="black"/>
<path d="M28.3809 94.5H33.3809V98.5H28.3809V94.5Z" fill="white"/>
<path d="M33.3809 94.5H37.3809V98.5H33.3809V94.5Z" fill="black"/>
<path d="M37.3809 94.5H41.3809V98.5H37.3809V94.5Z" fill="black"/>
<path d="M41.3809 94.5H45.3809V98.5H41.3809V94.5Z" fill="white"/>
<path d="M45.3809 94.5H49.3809V98.5H45.3809V94.5Z" fill="black"/>
<path d="M49.3809 94.5H53.3809V98.5H49.3809V94.5Z" fill="white"/>
<path d="M53.3809 94.5H57.3809V98.5H53.3809V94.5Z" fill="white"/>
<path d="M57.3809 94.5H61.3809V98.5H57.3809V94.5Z" fill="black"/>
<path d="M61.3809 94.5H65.3809V98.5H61.3809V94.5Z" fill="black"/>
<path d="M65.3809 94.5H69.3809V98.5H65.3809V94.5Z" fill="black"/>
<path d="M69.3809 94.5H73.3809V98.5H69.3809V94.5Z" fill="white"/>
<path d="M73.3809 94.5H77.3809V98.5H73.3809V94.5Z" fill="black"/>
<path d="M77.3809 94.5H81.3809V98.5H77.3809V94.5Z" fill="white"/>
<path d="M81.3809 94.5H85.3809V98.5H81.3809V94.5Z" fill="black"/>
<path d="M85.3809 94.5H90.3809V98.5H85.3809V94.5Z" fill="white"/>
<path d="M90.3809 94.5H94.3809V98.5H90.3809V94.5Z" fill="white"/>
<path d="M94.3809 94.5H98.3809V98.5H94.3809V94.5Z" fill="white"/>
<path d="M98.3809 94.5H102.381V98.5H98.3809V94.5Z" fill="black"/>
<path d="M102.381 94.5H106.381V98.5H102.381V94.5Z" fill="white"/>
<path d="M106.381 94.5H110.381V98.5H106.381V94.5Z" fill="white"/>
<path d="M110.381 94.5H114.381V98.5H110.381V94.5Z" fill="white"/>
<path d="M114.381 94.5H118.381V98.5H114.381V94.5Z" fill="white"/>
<path d="M0.380859 98.5H4.38086V102.5H0.380859V98.5Z" fill="black"/>
<path d="M4.38086 98.5H8.38086V102.5H4.38086V98.5Z" fill="white"/>
<path d="M8.38086 98.5H12.3809V102.5H8.38086V98.5Z" fill="black"/>
<path d="M12.3809 98.5H16.3809V102.5H12.3809V98.5Z" fill="black"/>
<path d="M16.3809 98.5H20.3809V102.5H16.3809V98.5Z" fill="black"/>
<path d="M20.3809 98.5H24.3809V102.5H20.3809V98.5Z" fill="white"/>
<path d="M24.3809 98.5H28.3809V102.5H24.3809V98.5Z" fill="black"/>
<path d="M28.3809 98.5H33.3809V102.5H28.3809V98.5Z" fill="white"/>
<path d="M33.3809 98.5H37.3809V102.5H33.3809V98.5Z" fill="white"/>
<path d="M37.3809 98.5H41.3809V102.5H37.3809V98.5Z" fill="white"/>
<path d="M41.3809 98.5H45.3809V102.5H41.3809V98.5Z" fill="white"/>
<path d="M45.3809 98.5H49.3809V102.5H45.3809V98.5Z" fill="white"/>
<path d="M49.3809 98.5H53.3809V102.5H49.3809V98.5Z" fill="white"/>
<path d="M53.3809 98.5H57.3809V102.5H53.3809V98.5Z" fill="black"/>
<path d="M57.3809 98.5H61.3809V102.5H57.3809V98.5Z" fill="black"/>
<path d="M61.3809 98.5H65.3809V102.5H61.3809V98.5Z" fill="white"/>
<path d="M65.3809 98.5H69.3809V102.5H65.3809V98.5Z" fill="black"/>
<path d="M69.3809 98.5H73.3809V102.5H69.3809V98.5Z" fill="white"/>
<path d="M73.3809 98.5H77.3809V102.5H73.3809V98.5Z" fill="white"/>
<path d="M77.3809 98.5H81.3809V102.5H77.3809V98.5Z" fill="black"/>
<path d="M81.3809 98.5H85.3809V102.5H81.3809V98.5Z" fill="black"/>
<path d="M85.3809 98.5H90.3809V102.5H85.3809V98.5Z" fill="black"/>
<path d="M90.3809 98.5H94.3809V102.5H90.3809V98.5Z" fill="black"/>
<path d="M94.3809 98.5H98.3809V102.5H94.3809V98.5Z" fill="black"/>
<path d="M98.3809 98.5H102.381V102.5H98.3809V98.5Z" fill="black"/>
<path d="M102.381 98.5H106.381V102.5H102.381V98.5Z" fill="black"/>
<path d="M106.381 98.5H110.381V102.5H106.381V98.5Z" fill="white"/>
<path d="M110.381 98.5H114.381V102.5H110.381V98.5Z" fill="black"/>
<path d="M114.381 98.5H118.381V102.5H114.381V98.5Z" fill="white"/>
<path d="M0.380859 102.5H4.38086V106.5H0.380859V102.5Z" fill="black"/>
<path d="M4.38086 102.5H8.38086V106.5H4.38086V102.5Z" fill="white"/>
<path d="M8.38086 102.5H12.3809V106.5H8.38086V102.5Z" fill="black"/>
<path d="M12.3809 102.5H16.3809V106.5H12.3809V102.5Z" fill="black"/>
<path d="M16.3809 102.5H20.3809V106.5H16.3809V102.5Z" fill="black"/>
<path d="M20.3809 102.5H24.3809V106.5H20.3809V102.5Z" fill="white"/>
<path d="M24.3809 102.5H28.3809V106.5H24.3809V102.5Z" fill="black"/>
<path d="M28.3809 102.5H33.3809V106.5H28.3809V102.5Z" fill="white"/>
<path d="M33.3809 102.5H37.3809V106.5H33.3809V102.5Z" fill="white"/>
<path d="M37.3809 102.5H41.3809V106.5H37.3809V102.5Z" fill="black"/>
<path d="M41.3809 102.5H45.3809V106.5H41.3809V102.5Z" fill="black"/>
<path d="M45.3809 102.5H49.3809V106.5H45.3809V102.5Z" fill="white"/>
<path d="M49.3809 102.5H53.3809V106.5H49.3809V102.5Z" fill="black"/>
<path d="M53.3809 102.5H57.3809V106.5H53.3809V102.5Z" fill="black"/>
<path d="M57.3809 102.5H61.3809V106.5H57.3809V102.5Z" fill="black"/>
<path d="M61.3809 102.5H65.3809V106.5H61.3809V102.5Z" fill="black"/>
<path d="M65.3809 102.5H69.3809V106.5H65.3809V102.5Z" fill="white"/>
<path d="M69.3809 102.5H73.3809V106.5H69.3809V102.5Z" fill="white"/>
<path d="M73.3809 102.5H77.3809V106.5H73.3809V102.5Z" fill="white"/>
<path d="M77.3809 102.5H81.3809V106.5H77.3809V102.5Z" fill="white"/>
<path d="M81.3809 102.5H85.3809V106.5H81.3809V102.5Z" fill="black"/>
<path d="M85.3809 102.5H90.3809V106.5H85.3809V102.5Z" fill="black"/>
<path d="M90.3809 102.5H94.3809V106.5H90.3809V102.5Z" fill="white"/>
<path d="M94.3809 102.5H98.3809V106.5H94.3809V102.5Z" fill="black"/>
<path d="M98.3809 102.5H102.381V106.5H98.3809V102.5Z" fill="white"/>
<path d="M102.381 102.5H106.381V106.5H102.381V102.5Z" fill="black"/>
<path d="M106.381 102.5H110.381V106.5H106.381V102.5Z" fill="black"/>
<path d="M110.381 102.5H114.381V106.5H110.381V102.5Z" fill="white"/>
<path d="M114.381 102.5H118.381V106.5H114.381V102.5Z" fill="black"/>
<path d="M0.380859 106.5H4.38086V110.5H0.380859V106.5Z" fill="black"/>
<path d="M4.38086 106.5H8.38086V110.5H4.38086V106.5Z" fill="white"/>
<path d="M8.38086 106.5H12.3809V110.5H8.38086V106.5Z" fill="black"/>
<path d="M12.3809 106.5H16.3809V110.5H12.3809V106.5Z" fill="black"/>
<path d="M16.3809 106.5H20.3809V110.5H16.3809V106.5Z" fill="black"/>
<path d="M20.3809 106.5H24.3809V110.5H20.3809V106.5Z" fill="white"/>
<path d="M24.3809 106.5H28.3809V110.5H24.3809V106.5Z" fill="black"/>
<path d="M28.3809 106.5H33.3809V110.5H28.3809V106.5Z" fill="white"/>
<path d="M33.3809 106.5H37.3809V110.5H33.3809V106.5Z" fill="white"/>
<path d="M37.3809 106.5H41.3809V110.5H37.3809V106.5Z" fill="white"/>
<path d="M41.3809 106.5H45.3809V110.5H41.3809V106.5Z" fill="black"/>
<path d="M45.3809 106.5H49.3809V110.5H45.3809V106.5Z" fill="white"/>
<path d="M49.3809 106.5H53.3809V110.5H49.3809V106.5Z" fill="white"/>
<path d="M53.3809 106.5H57.3809V110.5H53.3809V106.5Z" fill="black"/>
<path d="M57.3809 106.5H61.3809V110.5H57.3809V106.5Z" fill="black"/>
<path d="M61.3809 106.5H65.3809V110.5H61.3809V106.5Z" fill="black"/>
<path d="M65.3809 106.5H69.3809V110.5H65.3809V106.5Z" fill="white"/>
<path d="M69.3809 106.5H73.3809V110.5H69.3809V106.5Z" fill="white"/>
<path d="M73.3809 106.5H77.3809V110.5H73.3809V106.5Z" fill="white"/>
<path d="M77.3809 106.5H81.3809V110.5H77.3809V106.5Z" fill="white"/>
<path d="M81.3809 106.5H85.3809V110.5H81.3809V106.5Z" fill="white"/>
<path d="M85.3809 106.5H90.3809V110.5H85.3809V106.5Z" fill="black"/>
<path d="M90.3809 106.5H94.3809V110.5H90.3809V106.5Z" fill="black"/>
<path d="M94.3809 106.5H98.3809V110.5H94.3809V106.5Z" fill="black"/>
<path d="M98.3809 106.5H102.381V110.5H98.3809V106.5Z" fill="black"/>
<path d="M102.381 106.5H106.381V110.5H102.381V106.5Z" fill="black"/>
<path d="M106.381 106.5H110.381V110.5H106.381V106.5Z" fill="black"/>
<path d="M110.381 106.5H114.381V110.5H110.381V106.5Z" fill="black"/>
<path d="M114.381 106.5H118.381V110.5H114.381V106.5Z" fill="white"/>
<path d="M0.380859 110.5H4.38086V114.5H0.380859V110.5Z" fill="black"/>
<path d="M4.38086 110.5H8.38086V114.5H4.38086V110.5Z" fill="white"/>
<path d="M8.38086 110.5H12.3809V114.5H8.38086V110.5Z" fill="white"/>
<path d="M12.3809 110.5H16.3809V114.5H12.3809V110.5Z" fill="white"/>
<path d="M16.3809 110.5H20.3809V114.5H16.3809V110.5Z" fill="white"/>
<path d="M20.3809 110.5H24.3809V114.5H20.3809V110.5Z" fill="white"/>
<path d="M24.3809 110.5H28.3809V114.5H24.3809V110.5Z" fill="black"/>
<path d="M28.3809 110.5H33.3809V114.5H28.3809V110.5Z" fill="white"/>
<path d="M33.3809 110.5H37.3809V114.5H33.3809V110.5Z" fill="black"/>
<path d="M37.3809 110.5H41.3809V114.5H37.3809V110.5Z" fill="black"/>
<path d="M41.3809 110.5H45.3809V114.5H41.3809V110.5Z" fill="black"/>
<path d="M45.3809 110.5H49.3809V114.5H45.3809V110.5Z" fill="white"/>
<path d="M49.3809 110.5H53.3809V114.5H49.3809V110.5Z" fill="black"/>
<path d="M53.3809 110.5H57.3809V114.5H53.3809V110.5Z" fill="black"/>
<path d="M57.3809 110.5H61.3809V114.5H57.3809V110.5Z" fill="black"/>
<path d="M61.3809 110.5H65.3809V114.5H61.3809V110.5Z" fill="white"/>
<path d="M65.3809 110.5H69.3809V114.5H65.3809V110.5Z" fill="black"/>
<path d="M69.3809 110.5H73.3809V114.5H69.3809V110.5Z" fill="white"/>
<path d="M73.3809 110.5H77.3809V114.5H73.3809V110.5Z" fill="white"/>
<path d="M77.3809 110.5H81.3809V114.5H77.3809V110.5Z" fill="black"/>
<path d="M81.3809 110.5H85.3809V114.5H81.3809V110.5Z" fill="white"/>
<path d="M85.3809 110.5H90.3809V114.5H85.3809V110.5Z" fill="black"/>
<path d="M90.3809 110.5H94.3809V114.5H90.3809V110.5Z" fill="white"/>
<path d="M94.3809 110.5H98.3809V114.5H94.3809V110.5Z" fill="black"/>
<path d="M98.3809 110.5H102.381V114.5H98.3809V110.5Z" fill="white"/>
<path d="M102.381 110.5H106.381V114.5H102.381V110.5Z" fill="black"/>
<path d="M106.381 110.5H110.381V114.5H106.381V110.5Z" fill="black"/>
<path d="M110.381 110.5H114.381V114.5H110.381V110.5Z" fill="white"/>
<path d="M114.381 110.5H118.381V114.5H114.381V110.5Z" fill="black"/>
<path d="M0.380859 114.5H4.38086V118.5H0.380859V114.5Z" fill="black"/>
<path d="M4.38086 114.5H8.38086V118.5H4.38086V114.5Z" fill="black"/>
<path d="M8.38086 114.5H12.3809V118.5H8.38086V114.5Z" fill="black"/>
<path d="M12.3809 114.5H16.3809V118.5H12.3809V114.5Z" fill="black"/>
<path d="M16.3809 114.5H20.3809V118.5H16.3809V114.5Z" fill="black"/>
<path d="M20.3809 114.5H24.3809V118.5H20.3809V114.5Z" fill="black"/>
<path d="M24.3809 114.5H28.3809V118.5H24.3809V114.5Z" fill="black"/>
<path d="M28.3809 114.5H33.3809V118.5H28.3809V114.5Z" fill="white"/>
<path d="M33.3809 114.5H37.3809V118.5H33.3809V114.5Z" fill="black"/>
<path d="M37.3809 114.5H41.3809V118.5H37.3809V114.5Z" fill="black"/>
<path d="M41.3809 114.5H45.3809V118.5H41.3809V114.5Z" fill="white"/>
<path d="M45.3809 114.5H49.3809V118.5H45.3809V114.5Z" fill="white"/>
<path d="M49.3809 114.5H53.3809V118.5H49.3809V114.5Z" fill="black"/>
<path d="M53.3809 114.5H57.3809V118.5H53.3809V114.5Z" fill="white"/>
<path d="M57.3809 114.5H61.3809V118.5H57.3809V114.5Z" fill="black"/>
<path d="M61.3809 114.5H65.3809V118.5H61.3809V114.5Z" fill="black"/>
<path d="M65.3809 114.5H69.3809V118.5H65.3809V114.5Z" fill="black"/>
<path d="M69.3809 114.5H73.3809V118.5H69.3809V114.5Z" fill="black"/>
<path d="M73.3809 114.5H77.3809V118.5H73.3809V114.5Z" fill="white"/>
<path d="M77.3809 114.5H81.3809V118.5H77.3809V114.5Z" fill="white"/>
<path d="M81.3809 114.5H85.3809V118.5H81.3809V114.5Z" fill="white"/>
<path d="M85.3809 114.5H90.3809V118.5H85.3809V114.5Z" fill="white"/>
<path d="M90.3809 114.5H94.3809V118.5H90.3809V114.5Z" fill="black"/>
<path d="M94.3809 114.5H98.3809V118.5H94.3809V114.5Z" fill="black"/>
<path d="M98.3809 114.5H102.381V118.5H98.3809V114.5Z" fill="black"/>
<path d="M102.381 114.5H106.381V118.5H102.381V114.5Z" fill="black"/>
<path d="M106.381 114.5H110.381V118.5H106.381V114.5Z" fill="black"/>
<path d="M110.381 114.5H114.381V118.5H110.381V114.5Z" fill="white"/>
<path d="M114.381 114.5H118.381V118.5H114.381V114.5Z" fill="white"/>
</g>
<defs>
<clipPath id="clip0_96_7974">
<rect width="118" height="118" fill="white" transform="translate(0.380859 0.5)"/>
</clipPath>
</defs>
</svg>
