<svg width="18" height="17" viewBox="0 0 18 17" fill="none" xmlns="http://www.w3.org/2000/svg">
<g clip-path="url(#clip0_270_1313)">
<mask id="mask0_270_1313" style="mask-type:luminance" maskUnits="userSpaceOnUse" x="1" y="1" width="13" height="13">
<path d="M13.387 1.58203H1.24414V13.7249H13.387V1.58203Z" fill="white"/>
<path d="M6.9392 12.1645C9.63795 12.1645 11.8257 9.97677 11.8257 7.27807C11.8257 4.57935 9.63795 2.3916 6.9392 2.3916C4.24048 2.3916 2.05273 4.57935 2.05273 7.27807C2.05273 8.13553 2.2736 8.94139 2.66153 9.64195L2.4137 11.8502L4.64003 11.591C5.32529 11.957 6.10801 12.1645 6.9392 12.1645Z" fill="black"/>
</mask>
<g mask="url(#mask0_270_1313)">
<path d="M4.64096 11.5909L5.0224 10.8768L4.79894 10.7575L4.54729 10.7868L4.64096 11.5909ZM2.66246 9.6419L3.46693 9.73216L3.49572 9.47554L3.37064 9.24969L2.66246 9.6419ZM2.41463 11.8502L1.61016 11.7599C1.58263 12.0052 1.66851 12.2497 1.84342 12.4238C2.01832 12.598 2.26313 12.6829 2.50829 12.6543L2.41463 11.8502ZM11.0171 7.27802C11.0171 9.52962 9.19178 11.3549 6.94013 11.3549V12.974C10.0859 12.974 12.6361 10.4238 12.6361 7.27802H11.0171ZM2.86319 7.27802C2.86319 5.02639 4.6885 3.20108 6.94013 3.20108V1.58203C3.79432 1.58203 1.24414 4.13221 1.24414 7.27802H2.86319ZM6.94013 3.20108C9.19178 3.20108 11.0171 5.02639 11.0171 7.27802H12.6361C12.6361 4.13221 10.0859 1.58203 6.94013 1.58203V3.20108ZM6.94013 11.3549C6.24522 11.3549 5.59317 11.1818 5.0224 10.8768L4.25952 12.3049C5.05927 12.7321 5.97266 12.974 6.94013 12.974V11.3549ZM3.37064 9.24969C3.04747 8.66614 2.86319 7.99482 2.86319 7.27802H1.24414C1.24414 8.27615 1.50157 9.21658 1.95428 10.034L3.37064 9.24969ZM1.85798 9.55156L1.61016 11.7599L3.21911 11.9405L3.46693 9.73216L1.85798 9.55156ZM2.50829 12.6543L4.73462 12.3949L4.54729 10.7868L2.32097 11.0461L2.50829 12.6543Z" fill="white"/>
</g>
<path d="M14.2705 14.767L14.0797 14.41L14.1915 14.3502L14.3173 14.365L14.2705 14.767ZM16.3928 12.6763L15.9905 12.7214L15.9761 12.5932L16.0387 12.4802L16.3928 12.6763ZM16.6586 15.0451L17.0608 15.0001C17.0746 15.1227 17.0317 15.2449 16.9442 15.332C16.8567 15.4191 16.7343 15.4615 16.6118 15.4472L16.6586 15.0451ZM16.6411 10.1406C16.6411 7.46924 14.4755 5.30366 11.8041 5.30366V4.49414C14.9225 4.49414 17.4506 7.02215 17.4506 10.1406H16.6411ZM11.8041 14.9775C12.6276 14.9775 13.4019 14.7721 14.0797 14.41L14.4612 15.124C13.6688 15.5473 12.7639 15.7871 11.8041 15.7871V14.9775ZM16.0387 12.4802C16.4224 11.7872 16.6411 10.9901 16.6411 10.1406H17.4506C17.4506 11.1307 17.1954 12.0625 16.7469 12.8724L16.0387 12.4802ZM16.795 12.6311L17.0608 15.0001L16.2564 15.0903L15.9905 12.7214L16.795 12.6311ZM16.6118 15.4472L14.2236 15.169L14.3173 14.365L16.7054 14.6431L16.6118 15.4472ZM7.58792 12.513C8.41814 13.9851 9.99546 14.9775 11.8041 14.9775V15.7871C9.69164 15.7871 7.8507 14.6268 6.88281 12.9108L7.58792 12.513Z" fill="white"/>
<path d="M4.13281 8.75635C4.94469 8.75635 8.93594 8.75635 9.74784 8.75635" stroke="white" stroke-width="0.809524" stroke-linecap="round"/>
<path d="M4.13281 7.24365C4.94469 7.24365 8.93594 7.24365 9.74784 7.24365" stroke="white" stroke-width="0.809524" stroke-linecap="round"/>
<path d="M4.13281 5.80029C4.94469 5.80029 8.93594 5.80029 9.74784 5.80029" stroke="white" stroke-width="0.809524" stroke-linecap="round"/>
<path d="M13.336 11.1186C13.2972 11.1186 13.2632 11.1331 13.234 11.1623C13.2097 11.1914 13.1976 11.2254 13.1976 11.2643V11.665H12.3452V11.2497C12.3452 10.6086 12.6463 10.288 13.2486 10.288H13.285C13.3239 10.288 13.3555 10.2734 13.3797 10.2443C13.4089 10.2151 13.4235 10.1811 13.4235 10.1423V9.27528C13.4235 9.23642 13.4089 9.20243 13.3797 9.17328C13.3555 9.14414 13.3239 9.12957 13.285 9.12957H12.7313C12.6925 9.12957 12.6585 9.14414 12.6293 9.17328C12.605 9.20243 12.5929 9.23642 12.5929 9.27528V9.64685H11.6895V9.29714C11.6895 8.65602 11.9906 8.33545 12.5929 8.33545H13.4016C14.0039 8.33545 14.305 8.65602 14.305 9.29714V10.1569C14.305 10.798 14.0039 11.1186 13.4016 11.1186H13.336ZM12.265 12.5976C12.265 12.4519 12.316 12.328 12.418 12.226C12.52 12.124 12.6439 12.073 12.7896 12.073C12.9353 12.073 13.0592 12.124 13.1612 12.226C13.2632 12.328 13.3142 12.4519 13.3142 12.5976C13.3142 12.7433 13.2632 12.8671 13.1612 12.9691C13.0592 13.0711 12.9353 13.1221 12.7896 13.1221C12.6439 13.1221 12.52 13.0711 12.418 12.9691C12.316 12.8671 12.265 12.7433 12.265 12.5976Z" fill="white"/>
</g>
<defs>
<clipPath id="clip0_270_1313">
<rect width="17" height="17" fill="white" transform="translate(0.949219)"/>
</clipPath>
</defs>
</svg>
