<svg width="50" height="44" viewBox="0 0 50 44" fill="none" xmlns="http://www.w3.org/2000/svg">
<g clip-path="url(#clip0_703_8)">
<path d="M31.8009 14.9203L31.1096 17.4368L18.3516 17.3933L19.0524 14.8768L31.8009 14.9203ZM25.3374 29.7811L18.6351 21.6631L18.6327 19.5287L21.9593 19.54C22.754 19.5427 23.4179 19.4136 23.9508 19.1526C24.4901 18.8853 24.8983 18.5117 25.1756 18.0319C25.4593 17.5458 25.6022 16.9758 25.6045 16.322C25.6078 15.3414 25.3221 14.552 24.7473 13.9539C24.1724 13.3559 23.2505 13.0547 21.9814 13.0504L18.3665 13.0381L19.1265 10.0698L21.9916 10.0796C23.6067 10.0851 24.9423 10.3396 25.9981 10.8432C27.0604 11.3404 27.8528 12.0417 28.3752 12.9472C28.9042 13.8528 29.1666 14.9112 29.1624 16.1226C29.1588 17.193 28.9601 18.1474 28.5662 18.9857C28.1724 19.8239 27.5547 20.5109 26.7132 21.0464C25.8717 21.5819 24.7713 21.9371 23.4118 22.112L23.2964 22.15L29.3471 29.6218L29.3466 29.7948L25.3374 29.7811ZM31.8365 10.1132L31.1259 12.6682L20.7811 12.5944L21.4916 10.0779L31.8365 10.1132Z" fill="white"/>
<path d="M17.809 35.0902C26.7041 39.0846 37.1532 35.1117 41.1476 26.2166C45.142 17.3215 41.1692 6.87243 32.274 2.87802C23.3789 -1.11639 12.9299 2.85644 8.93545 11.7516C4.94105 20.6467 8.91387 31.0957 17.809 35.0902Z" stroke="white" stroke-width="2.46328"/>
</g>
<defs>
<clipPath id="clip0_703_8">
<rect width="50" height="44" fill="white"/>
</clipPath>
</defs>
</svg>
